<svg id="SvgjsSvg1107" width="550" height="550" xmlns="http://www.w3.org/2000/svg" version="1.1"
    xmlns:xlink="http://www.w3.org/1999/xlink" xmlns:svgjs="http://svgjs.com/svgjs">
    <defs id="SvgjsDefs1108"></defs>
    <g id="SvgjsG1109"><svg xmlns="http://www.w3.org/2000/svg" fill="none" viewBox="0 0 2000 2000" width="550"
            height="550">
            <path fill="#3a3a3a"
                d="M620.704 804.146C619.605 804.149 618.519 803.912 617.521 803.453C616.598 803.037 615.767 802.443 615.074 801.705C614.382 800.968 613.841 800.101 613.483 799.155C613.126 798.208 612.958 797.2 612.99 796.189C613.022 795.178 613.253 794.183 613.67 793.261L619.639 780.155C634.452 747.678 645.158 724.201 659.522 687.604C659.892 686.657 660.445 685.791 661.149 685.058C661.853 684.324 662.695 683.736 663.627 683.328C664.558 682.92 665.561 682.699 666.578 682.678C667.595 682.658 668.606 682.837 669.553 683.207C670.501 683.577 671.366 684.13 672.099 684.835C672.833 685.539 673.421 686.381 673.829 687.313C674.237 688.244 674.458 689.247 674.479 690.264C674.499 691.281 674.32 692.292 673.95 693.239C659.432 730.221 648.662 753.853 633.746 786.547L627.738 799.64C627.124 800.988 626.133 802.131 624.885 802.93C623.638 803.729 622.186 804.151 620.704 804.146Z"
                class="color3A3A3A svgShape"></path>
            <path fill="#699EF5"
                d="M1050.79 1422.84C1050.45 1422.83 1050.11 1422.81 1049.77 1422.77L824.919 1393.2C822.893 1392.93 821.057 1391.87 819.813 1390.25C818.57 1388.63 818.022 1386.58 818.289 1384.55C818.556 1382.53 819.617 1380.69 821.238 1379.45C822.86 1378.2 824.909 1377.65 826.934 1377.92L1051.79 1407.56C1053.83 1407.69 1055.74 1408.63 1057.09 1410.17C1058.44 1411.71 1059.12 1413.72 1058.99 1415.76C1058.86 1417.81 1057.92 1419.71 1056.38 1421.06C1054.84 1422.41 1052.83 1423.1 1050.79 1422.96V1422.84Z"
                class="color007FFE svgShape"></path>
            <path fill="#699EF5"
                d="M1346.76 1461.85C1346.43 1461.87 1346.09 1461.87 1345.76 1461.85L1121.84 1432.32C1119.81 1432.06 1117.98 1431 1116.73 1429.37C1115.49 1427.75 1114.94 1425.7 1115.21 1423.68C1115.48 1421.65 1116.54 1419.82 1118.16 1418.57C1119.78 1417.33 1121.83 1416.78 1123.85 1417.05L1339.37 1445.45L1341.53 1383.84L426.553 1256.76L428.773 1322.32L708.608 1359.39C710.634 1359.66 712.469 1360.72 713.712 1362.34C714.954 1363.96 715.5 1366.01 715.232 1368.04C714.963 1370.06 713.9 1371.9 712.277 1373.14C710.655 1374.38 708.605 1374.93 706.58 1374.66L420.314 1336.72C418.506 1336.48 416.841 1335.61 415.617 1334.25C414.392 1332.9 413.687 1331.16 413.626 1329.34L410.802 1248.15C410.764 1247.02 410.971 1245.91 411.41 1244.87C411.848 1243.84 412.508 1242.91 413.342 1242.16C414.176 1241.41 415.164 1240.85 416.238 1240.52C417.312 1240.19 418.444 1240.1 419.557 1240.25L1350.48 1369.54C1352.37 1369.8 1354.09 1370.76 1355.32 1372.22C1356.55 1373.68 1357.19 1375.54 1357.12 1377.45L1354.41 1454.47C1354.34 1456.46 1353.5 1458.35 1352.06 1459.74C1350.62 1461.13 1348.7 1461.9 1346.71 1461.9L1346.76 1461.85Z"
                class="color007FFE svgShape"></path>
            <path fill="#699EF5" d="M583.607 1349.46L543.275 1344.01L608.985 1275.01L649.009 1280.92L583.607 1349.46Z"
                class="color007FFE svgShape"></path>
            <path fill="#699EF5"
                d="M583.607 1357.17C583.263 1357.17 582.92 1357.14 582.58 1357.09L542.248 1351.65C540.842 1351.46 539.517 1350.88 538.418 1349.98 537.318 1349.09 536.488 1347.9 536.018 1346.57 535.548 1345.23 535.457 1343.79 535.754 1342.4 536.052 1341.01 536.726 1339.73 537.704 1338.71L603.413 1269.7C604.264 1268.8 605.316 1268.13 606.482 1267.73 607.648 1267.32 608.894 1267.21 610.114 1267.39L650.138 1273.29C651.535 1273.5 652.848 1274.09 653.934 1274.99 655.02 1275.89 655.837 1277.08 656.295 1278.41 656.754 1279.75 656.836 1281.18 656.533 1282.56 656.231 1283.94 655.555 1285.21 654.579 1286.23L589.114 1354.78C588.402 1355.52 587.548 1356.12 586.602 1356.53 585.656 1356.94 584.638 1357.16 583.607 1357.17zM559.218 1338.4L580.706 1341.3 633.13 1286.36 611.77 1283.22 559.218 1338.4zM803.804 1364.07L785.127 1357.54 766.064 1355.87 816.396 1303.02 856.42 1308.93 803.804 1364.07z"
                class="color007FFE svgShape"></path>
            <path fill="#699EF5"
                d="M803.803 1371.77C802.929 1371.78 802.061 1371.63 801.235 1371.35L783.47 1365.12 765.37 1363.54C763.927 1363.42 762.549 1362.88 761.395 1362.01 760.241 1361.13 759.357 1359.95 758.845 1358.6 758.333 1357.24 758.213 1355.77 758.5 1354.35 758.787 1352.93 759.469 1351.62 760.467 1350.57L810.786 1297.71C811.637 1296.82 812.69 1296.14 813.856 1295.74 815.022 1295.34 816.267 1295.23 817.486 1295.41L857.51 1301.3C858.907 1301.51 860.22 1302.09 861.306 1303 862.392 1303.9 863.209 1305.08 863.667 1306.42 864.126 1307.75 864.208 1309.19 863.906 1310.57 863.603 1311.95 862.927 1313.22 861.952 1314.24L809.322 1369.44C808.605 1370.18 807.747 1370.76 806.799 1371.16 805.851 1371.56 804.832 1371.77 803.803 1371.77zM782.674 1349.55L785.806 1349.84C786.445 1349.89 787.075 1350.02 787.68 1350.23L801.659 1355.12 840.579 1314.34 819.219 1311.18 782.674 1349.55zM974.233 1402.62L933.901 1397.16 999.611 1328.17 1039.63 1334.06 974.233 1402.62z"
                class="color007FFE svgShape"></path>
            <path fill="#699EF5"
                d="M974.232 1410.32C973.889 1410.32 973.545 1410.3 973.205 1410.24L932.873 1404.75C931.488 1404.55 930.184 1403.97 929.102 1403.08 928.021 1402.19 927.202 1401.02 926.735 1399.7 926.268 1398.38 926.169 1396.96 926.45 1395.59 926.731 1394.21 927.381 1392.94 928.329 1391.91L994.039 1322.92C994.889 1322.02 995.942 1321.35 997.108 1320.95 998.274 1320.54 999.519 1320.43 1000.74 1320.61L1040.76 1326.51C1042.16 1326.72 1043.48 1327.3 1044.56 1328.2 1045.65 1329.11 1046.47 1330.29 1046.93 1331.63 1047.39 1332.96 1047.47 1334.4 1047.17 1335.78 1046.87 1337.16 1046.19 1338.43 1045.22 1339.45L979.752 1408C979.034 1408.73 978.175 1409.32 977.227 1409.72 976.279 1410.12 975.261 1410.32 974.232 1410.32zM949.843 1391.55L971.37 1394.48 1023.79 1339.54 1002.43 1336.38 949.843 1391.55zM1171.32 1427.05L1130.99 1421.6 1191.93 1357.61 1236.28 1361.59 1171.32 1427.05z"
                class="color699EF5 svgShape"></path>
            <path fill="#699EF5"
                d="M1171.32 1434.75C1170.98 1434.77 1170.64 1434.77 1170.3 1434.75L1129.96 1429.29C1128.55 1429.11 1127.21 1428.54 1126.1 1427.64 1124.99 1426.74 1124.15 1425.55 1123.68 1424.2 1123.21 1422.86 1123.12 1421.4 1123.42 1420.01 1123.73 1418.61 1124.42 1417.33 1125.41 1416.3L1186.34 1352.33C1187.14 1351.49 1188.12 1350.84 1189.2 1350.43 1190.29 1350.02 1191.45 1349.86 1192.61 1349.96L1236.96 1353.93C1238.41 1354.06 1239.8 1354.6 1240.96 1355.49 1242.12 1356.38 1243.01 1357.58 1243.51 1358.96 1244.01 1360.33 1244.11 1361.82 1243.8 1363.25 1243.49 1364.68 1242.77 1365.99 1241.74 1367.02L1176.79 1432.49C1176.07 1433.21 1175.22 1433.78 1174.28 1434.17 1173.34 1434.55 1172.34 1434.75 1171.32 1434.75zM1146.93 1415.98L1168.51 1418.91 1219.22 1367.81 1194.89 1365.62 1146.93 1415.98zM1110.21 1351.26C1109.85 1351.26 1109.5 1351.24 1109.14 1351.18L1058.08 1344.01C1056.18 1343.74 1054.46 1342.78 1053.23 1341.31 1052.01 1339.84 1051.37 1337.96 1051.46 1336.05 1052.49 1312.85 1048.67 1289.68 1040.25 1268.04 1031.84 1246.39 1019 1226.74 1002.56 1210.33L941.743 1299.84C944.666 1305.69 946.687 1311.95 947.738 1318.4 947.933 1319.59 947.845 1320.81 947.481 1321.96 947.117 1323.12 946.487 1324.17 945.643 1325.03 944.798 1325.89 943.762 1326.55 942.619 1326.93 941.475 1327.32 940.256 1327.44 939.06 1327.27L788.553 1306.1C787.387 1305.93 786.275 1305.49 785.305 1304.82L728.312 1266.12C725.244 1273.73 722.738 1281.56 720.815 1289.54 720.368 1291.41 719.243 1293.03 717.66 1294.11 716.077 1295.19 714.15 1295.64 712.253 1295.37L661.19 1288.2C660.143 1288.04 659.139 1287.68 658.24 1287.12 657.341 1286.56 656.566 1285.83 655.964 1284.96 655.362 1284.09 654.945 1283.1 654.74 1282.07 654.535 1281.03 654.546 1279.96 654.772 1278.93 661.14 1249.63 673.095 1221.82 689.982 1197.04 762.649 1090.1 908.779 1062.26 1015.71 1134.89 1049.49 1157.82 1076.7 1189.19 1094.63 1225.88 1112.56 1262.56 1120.6 1303.3 1117.94 1344.05 1117.81 1346 1116.95 1347.84 1115.52 1349.18 1114.08 1350.52 1112.2 1351.27 1110.23 1351.26H1110.21zM1067.01 1329.71L1102.96 1334.75C1103.84 1298.04 1095.53 1261.69 1078.78 1229.01 1062.04 1196.33 1037.38 1168.35 1007.07 1147.62 977.999 1127.9 944.616 1115.45 909.73 1111.33 874.845 1107.2 839.478 1111.52 806.611 1123.92 773.743 1136.32 744.336 1156.43 720.867 1182.57 697.398 1208.71 680.554 1240.11 671.754 1274.11L707.696 1279.16C710.396 1269.59 713.869 1260.27 718.081 1251.27 718.555 1250.26 719.242 1249.36 720.094 1248.64 720.947 1247.93 721.946 1247.4 723.021 1247.11 724.097 1246.81 725.223 1246.76 726.322 1246.94 727.422 1247.12 728.469 1247.54 729.39 1248.17L792.571 1291.1 929.741 1310.35C928.767 1307.92 927.599 1305.57 926.25 1303.33 925.493 1302.07 925.112 1300.62 925.153 1299.15 925.194 1297.68 925.655 1296.25 926.481 1295.04L994.95 1194.23C995.568 1193.32 996.375 1192.55 997.316 1191.97 998.258 1191.4 999.312 1191.03 1000.41 1190.9 1001.5 1190.76 1002.61 1190.87 1003.67 1191.2 1004.72 1191.54 1005.69 1192.09 1006.5 1192.83 1025.69 1210.07 1041.01 1231.19 1051.44 1254.78 1061.87 1278.37 1067.18 1303.91 1067.01 1329.71zM852.645 1288.76C851.103 1288.78 849.592 1288.33 848.307 1287.48L747.913 1219.25C747.01 1218.64 746.248 1217.84 745.676 1216.91 745.105 1215.98 744.738 1214.94 744.6 1213.86 744.462 1212.77 744.555 1211.67 744.874 1210.63 745.193 1209.59 745.73 1208.62 746.45 1207.8 772.876 1177.86 808.35 1157.37 847.486 1149.43 886.621 1141.49 927.279 1146.54 963.283 1163.81 964.279 1164.29 965.16 1164.98 965.866 1165.83 966.572 1166.68 967.086 1167.68 967.374 1168.75 967.661 1169.81 967.715 1170.93 967.532 1172.02 967.349 1173.11 966.933 1174.15 966.312 1175.07L897.303 1276.55C896.507 1277.72 895.402 1278.65 894.111 1279.24 892.82 1279.82 891.393 1280.04 889.987 1279.86 878.38 1278.44 866.642 1281.17 856.856 1287.57 855.608 1288.36 854.16 1288.77 852.684 1288.76H852.645zM763.971 1211.5L852.915 1271.94C863.38 1266.26 875.206 1263.57 887.098 1264.17L948.367 1174C917.403 1161.15 883.303 1157.85 850.45 1164.54 817.597 1171.22 787.494 1187.57 764.01 1211.5H763.971z"
                class="color699EF5 svgShape"></path>
            <path fill="#699EF5"
                d="M1337.16 1742.75H435.192C433.193 1742.75 431.272 1741.97 429.834 1740.58C428.397 1739.19 427.556 1737.3 427.49 1735.3L424.922 1658.37C424.853 1656.33 425.597 1654.34 426.992 1652.85C428.387 1651.36 430.318 1650.48 432.361 1650.41C434.404 1650.34 436.391 1651.08 437.884 1652.48C439.378 1653.87 440.256 1655.8 440.326 1657.85L442.701 1727.34H1329.76L1360.66 823.657C1360.75 821.122 1360.33 818.595 1359.42 816.228C1358.51 813.86 1357.13 811.7 1355.37 809.875C1353.61 808.051 1351.49 806.6 1349.16 805.609C1346.82 804.618 1344.31 804.107 1341.78 804.107H430.635C428.098 804.107 425.588 804.618 423.253 805.609C420.918 806.6 418.807 808.051 417.045 809.875C415.283 811.7 413.906 813.86 412.997 816.228C412.088 818.595 411.664 821.122 411.752 823.657L429.723 1350.95C429.793 1352.99 429.049 1354.98 427.653 1356.48C426.258 1357.97 424.327 1358.85 422.285 1358.92C420.242 1358.99 418.255 1358.24 416.761 1356.85C415.268 1355.45 414.389 1353.52 414.319 1351.48L396.348 824.183C396.19 819.583 396.959 814.997 398.61 810.7C400.261 806.404 402.76 802.483 405.958 799.172C409.156 795.861 412.988 793.228 417.225 791.43C421.463 789.631 426.019 788.704 430.622 788.703H1341.71C1346.32 788.704 1350.87 789.631 1355.11 791.43C1359.35 793.228 1363.18 795.861 1366.38 799.171C1369.58 802.482 1372.08 806.403 1373.73 810.699C1375.39 814.996 1376.16 819.582 1376 824.183L1344.85 1735.26C1344.79 1737.26 1343.95 1739.17 1342.52 1740.56C1341.08 1741.96 1339.16 1742.74 1337.16 1742.75Z"
                class="color699EF5 svgShape"></path>
            <path fill="#3a3a3a"
                d="M879.179 451.9C877.34 451.921 875.554 451.283 874.145 450.102 872.735 448.92 871.795 447.273 871.494 445.459 871.193 443.645 871.551 441.782 872.504 440.209 873.457 438.636 874.941 437.456 876.689 436.882L898.087 429.552C899.044 429.225 900.057 429.09 901.067 429.154 902.076 429.219 903.064 429.481 903.972 429.927 904.88 430.373 905.692 430.993 906.36 431.752 907.029 432.512 907.541 433.396 907.868 434.353 908.195 435.311 908.331 436.323 908.266 437.333 908.202 438.343 907.94 439.33 907.494 440.238 907.048 441.146 906.428 441.958 905.668 442.626 904.909 443.295 904.025 443.807 903.068 444.134L881.669 451.451C880.87 451.737 880.028 451.889 879.179 451.9zM818.886 502.643C817.524 502.64 816.187 502.276 815.012 501.588 813.837 500.9 812.865 499.912 812.196 498.726 811.526 497.54 811.183 496.198 811.202 494.836 811.22 493.474 811.6 492.142 812.301 490.974 817.337 482.61 824.072 475.395 832.069 469.794 833.744 468.625 835.815 468.169 837.826 468.526 839.838 468.884 841.625 470.025 842.794 471.7 843.963 473.375 844.42 475.446 844.062 477.458 843.705 479.469 842.563 481.256 840.888 482.425 834.66 486.785 829.414 492.4 825.484 498.907 824.8 500.046 823.833 500.989 822.677 501.643 821.52 502.298 820.215 502.642 818.886 502.643zM933.9 1794.98H315.607C313.564 1794.98 311.605 1794.17 310.161 1792.72 308.717 1791.28 307.905 1789.32 307.905 1787.28 307.905 1785.23 308.717 1783.27 310.161 1781.83 311.605 1780.39 313.564 1779.57 315.607 1779.57H933.9C935.943 1779.57 937.902 1780.39 939.346 1781.83 940.791 1783.27 941.602 1785.23 941.602 1787.28 941.602 1789.32 940.791 1791.28 939.346 1792.72 937.902 1794.17 935.943 1794.98 933.9 1794.98zM1350.43 1794.98H1006.14C1004.1 1794.98 1002.14 1794.17 1000.7 1792.72 999.253 1791.28 998.442 1789.32 998.442 1787.28 998.442 1785.23 999.253 1783.27 1000.7 1781.83 1002.14 1780.39 1004.1 1779.57 1006.14 1779.57H1350.43C1352.47 1779.57 1354.43 1780.39 1355.88 1781.83 1357.32 1783.27 1358.13 1785.23 1358.13 1787.28 1358.13 1789.32 1357.32 1791.28 1355.88 1792.72 1354.43 1794.17 1352.47 1794.98 1350.43 1794.98z"
                class="color3A3A3A svgShape"></path>
            <path fill="#3a3a3a"
                d="M934.362 778.512C933.181 778.512 932.015 778.241 930.955 777.719C929.895 777.197 928.97 776.439 928.25 775.502C927.53 774.565 927.036 773.475 926.805 772.316C926.574 771.158 926.612 769.961 926.917 768.82C940.113 719.528 953.874 675.64 966.107 636.926C993.179 550.832 1012.74 488.639 993.063 465.174C983.5 453.737 962.936 450.078 930.229 453.981C926.776 455.444 923.143 453.608 921.731 452.902C920.319 452.196 918.792 451.349 916.597 450.117C913.015 448.114 908.086 445.265 901.938 441.658C891.527 435.547 881.066 429.245 880.963 429.193C880.096 428.672 879.339 427.984 878.738 427.17C878.136 426.356 877.701 425.432 877.457 424.45C877.212 423.468 877.164 422.447 877.314 421.446C877.464 420.445 877.81 419.483 878.331 418.616C878.853 417.749 879.541 416.993 880.354 416.391C881.168 415.79 882.093 415.354 883.075 415.11C884.057 414.865 885.078 414.817 886.079 414.967C887.08 415.117 888.041 415.463 888.909 415.985C904.556 425.407 922.091 435.701 927.919 438.757C967.044 434.007 991.523 439.283 1004.94 455.29C1029.97 485.224 1010.41 547.417 980.792 641.547C968.661 680.12 954.914 723.841 941.795 772.799C941.357 774.437 940.391 775.884 939.048 776.916C937.704 777.949 936.057 778.51 934.362 778.512Z"
                class="color3A3A3A svgShape"></path>
            <path fill="#3a3a3a"
                d="M911.732 645.308C910.325 645.309 908.944 644.924 907.74 644.195 906.537 643.467 905.555 642.422 904.903 641.175 889.885 612.498 899.075 573.822 925.442 554.965 926.263 554.375 927.193 553.953 928.178 553.722 929.163 553.492 930.184 553.457 931.182 553.621 932.181 553.785 933.137 554.144 933.996 554.678 934.856 555.211 935.602 555.909 936.192 556.73 936.782 557.552 937.204 558.482 937.435 559.467 937.666 560.452 937.7 561.473 937.536 562.471 937.372 563.469 937.013 564.426 936.48 565.285 935.946 566.145 935.249 566.891 934.427 567.481 914.454 581.793 907.214 612.267 918.613 634.025 919.082 634.921 919.371 635.901 919.462 636.908 919.552 637.915 919.444 638.931 919.142 639.896 918.841 640.862 918.352 641.759 917.704 642.535 917.056 643.312 916.261 643.953 915.365 644.422 914.247 645.017 912.998 645.321 911.732 645.308zM843.866 523.143C840.849 523.157 837.868 522.499 835.137 521.218 833.292 520.341 831.87 518.768 831.186 516.843 830.501 514.918 830.608 512.8 831.485 510.955 832.362 509.11 833.935 507.689 835.86 507.004 837.785 506.319 839.903 506.427 841.748 507.303 842.702 507.606 843.708 507.713 844.705 507.617 845.702 507.522 846.669 507.225 847.549 506.745 848.428 506.265 849.201 505.612 849.821 504.826 850.441 504.039 850.895 503.135 851.157 502.169 851.412 500.134 852.465 498.285 854.084 497.027 855.703 495.769 857.755 495.206 859.789 495.462 861.824 495.717 863.673 496.77 864.931 498.389 866.189 500.008 866.752 502.06 866.496 504.094 865.997 507.521 864.688 510.78 862.679 513.602 860.67 516.423 858.019 518.726 854.944 520.319 851.546 522.174 847.737 523.145 843.866 523.143zM895.918 483.8C893.659 483.806 891.416 483.433 889.281 482.696 888.298 482.388 887.387 481.886 886.602 481.22 885.817 480.554 885.173 479.737 884.709 478.818 884.244 477.898 883.969 476.895 883.9 475.868 883.83 474.84 883.967 473.809 884.303 472.836 884.638 471.862 885.166 470.966 885.854 470.199 886.542 469.433 887.377 468.813 888.309 468.375 889.241 467.937 890.252 467.691 891.281 467.65 892.31 467.61 893.336 467.776 894.3 468.139 896.12 468.548 898.027 468.243 899.63 467.288 901.232 466.333 902.407 464.8 902.913 463.005 903.041 461.972 903.376 460.976 903.899 460.077 904.423 459.177 905.122 458.393 905.957 457.772 906.791 457.15 907.743 456.705 908.754 456.461 909.766 456.217 910.816 456.181 911.842 456.355 912.868 456.529 913.848 456.908 914.723 457.471 915.598 458.034 916.35 458.768 916.934 459.629 917.517 460.491 917.92 461.461 918.118 462.483 918.316 463.504 918.305 464.555 918.086 465.572 917.508 468.686 916.259 471.636 914.425 474.219 912.592 476.801 910.219 478.953 907.47 480.526 903.983 482.634 899.992 483.764 895.918 483.8zM813.572 461.939C838.436 414.778 876.47 413.7 890.731 424.713 898.947 414.727 907.419 404.175 909.986 391.493 912.553 378.81 906.713 363.496 894.3 359.864 879.897 355.653 864.994 368.451 850.258 365.589 842.197 364.01 835.843 358.066 829.617 352.752 761.417 294.256 695.245 313.691 705.104 370.723 670.771 361.665 634.317 365.392 602.527 381.211 578.138 393.482 556.637 413.905 548.845 440.078 541.054 466.252 549.821 498.074 573.235 512.219 582.759 517.996 596.071 523.772 594.992 534.901 594.633 538.598 592.541 541.884 590.294 544.85 578.074 561.036 558.678 575.4 559.782 595.643 561.168 620.828 591.95 631.496 616.776 635.886 602.797 649.056 601.899 673.663 614.876 687.822 627.854 701.98 652.436 703.226 666.787 690.466L698.223 619.66C696.696 623.101 672.037 608.108 669.919 606.246 661.538 599.368 656.094 589.554 654.695 578.802 651.999 555.324 666.697 525.107 720.161 543.45 730.622 547.032 745.679 552.654 755.987 545.671 771.686 535.042 771.224 505.621 756.719 494.8 776.744 496.495 803.97 480.128 813.572 461.939z"
                class="color3A3A3A svgShape"></path>
            <path fill="#3a3a3a"
                d="M642.308 706.987C636.11 707.068 629.962 705.865 624.252 703.455C618.541 701.045 613.391 697.479 609.125 692.982C596.289 679.003 594.556 657.233 603.323 640.866C570.873 632.805 553.261 617.427 551.977 596.016C550.976 577.749 563.299 563.925 574.159 551.807C577.74 547.802 581.116 544.028 584.043 540.164C585.416 538.329 587.034 535.992 587.214 534.106C587.624 529.805 581.45 525.89 573.324 521.269C571.887 520.448 570.475 519.626 569.127 518.817C544.096 503.645 532.171 468.845 541.4 437.884C549.102 412.018 570.103 388.861 599.01 374.33C629.133 359.375 663.309 354.644 696.362 360.852C696.015 341.456 704.269 325.783 719.865 316.913C748.966 300.367 793.97 312.138 834.508 346.912L835.997 348.195C841.247 352.727 846.266 357.001 851.619 358.067C856.753 359.068 862.773 357.181 869.127 355.178C877.33 352.611 886.624 349.671 896.341 352.508C913.323 357.476 920.512 377.411 917.431 393.02C914.504 407.91 904.595 419.977 896.636 429.643C895.363 431.19 893.536 432.181 891.545 432.404C889.553 432.627 887.553 432.064 885.969 430.836C882.118 427.884 873.89 425.278 863.082 427.614C853.506 429.694 835.201 437.383 820.323 465.585C811.518 482.272 790.671 496.751 771.25 501.231C774.137 507.507 775.542 514.363 775.357 521.269C775.049 534.362 769.427 545.864 760.3 552.077C747.194 560.947 730.147 555.067 718.877 551.178L717.593 550.754C696.696 543.592 680.689 543.771 671.318 551.319C664.386 556.89 661.049 566.851 662.332 577.942C663.496 586.69 667.926 594.673 674.732 600.29C677.723 602.549 691.189 610.38 696.298 612.151C697.696 611.811 699.162 611.869 700.53 612.32C701.897 612.77 703.11 613.595 704.032 614.7C704.955 615.806 705.549 617.147 705.747 618.573C705.945 619.999 705.74 621.452 705.155 622.767L673.757 693.611C673.308 694.611 672.657 695.507 671.844 696.243C663.64 703.31 653.135 707.131 642.308 706.987ZM667.98 373.534C646.463 373.514 625.236 378.502 605.98 388.104C580.847 400.735 562.709 420.49 556.214 442.286C548.922 466.753 557.934 494.004 577.163 505.647C578.446 506.404 579.73 507.162 581.014 507.932C590.692 513.503 603.952 521.128 602.54 535.659C601.988 541.345 599.1 545.851 596.327 549.509C593.028 553.886 589.28 558.084 585.647 562.14C575.956 572.949 566.765 583.218 567.407 595.168C568.562 616.374 599.626 625 618.047 628.248C619.452 628.498 620.76 629.133 621.825 630.082C622.89 631.031 623.67 632.258 624.079 633.625C624.488 634.992 624.508 636.446 624.139 637.825C623.77 639.203 623.025 640.451 621.987 641.431C610.974 651.803 610.255 671.417 620.473 682.508C630.344 693.277 648.944 694.587 660.394 685.601L687.351 624.975C685.079 623.948 682.396 622.587 679.161 620.803C674.223 618.162 669.452 615.221 664.874 611.997C655.059 603.844 648.705 592.269 647.096 579.611C645.209 563.231 650.703 548.136 661.78 539.227C671.331 531.525 689.661 524.761 722.715 536.095L723.999 536.532C732.881 539.587 745.038 543.784 751.764 539.227C756.77 535.838 759.877 528.958 760.056 520.845C760.249 512.438 757.168 504.607 752.2 500.898C750.863 499.895 749.888 498.484 749.422 496.879C748.957 495.273 749.027 493.559 749.621 491.997C750.215 490.434 751.302 489.108 752.717 488.217C754.131 487.326 755.797 486.92 757.463 487.06C773.958 488.446 798.424 474.224 806.819 458.281C824.611 424.559 847.729 415.086 859.937 412.442C870.437 410.17 880.796 411.03 888.973 414.675C894.929 407.179 900.667 398.925 902.438 389.927C904.209 380.928 900.371 369.594 892.169 367.18C886.932 365.653 880.886 367.553 873.89 369.748C866.355 372.11 857.819 374.805 848.807 373.047C839.373 371.211 832.3 365.114 826.061 359.722L824.624 358.439C784.202 323.78 746.783 319.249 727.619 330.199C714.923 337.426 709.647 351.315 712.767 369.311C712.987 370.585 712.883 371.893 712.465 373.116C712.047 374.339 711.328 375.437 710.374 376.309C709.421 377.181 708.263 377.799 707.007 378.106C705.752 378.413 704.439 378.399 703.191 378.066C691.686 375.018 679.831 373.494 667.929 373.534H667.98Z"
                class="color3A3A3A svgShape"></path>
            <path fill="#ffffff"
                d="M599.01 489.896C597.911 489.895 596.824 489.659 595.823 489.203C594.822 488.746 593.931 488.081 593.208 487.252C579.91 472.002 582.182 446.342 598.06 432.35C609.498 422.274 626.66 419.129 642.064 423.506C644.47 416.699 649.251 410.988 655.529 407.422C664.515 402.364 674.784 401.851 683.551 402.005C685.594 402.041 687.539 402.886 688.958 404.356C690.377 405.826 691.154 407.799 691.118 409.842C691.083 411.884 690.237 413.829 688.767 415.248C687.297 416.667 685.324 417.444 683.282 417.409C676.517 417.28 668.841 417.601 663.103 420.836C658.995 423.159 655.298 428.345 656.492 432.684C656.896 434.154 656.854 435.71 656.373 437.156C655.891 438.602 654.992 439.873 653.788 440.808C652.584 441.742 651.13 442.299 649.609 442.406C648.089 442.514 646.571 442.168 645.247 441.413C633.232 434.558 617.675 435.598 608.253 443.903C598.831 452.208 597.162 468.292 604.812 477.137C605.783 478.251 606.412 479.621 606.625 481.083C606.838 482.545 606.626 484.037 606.015 485.382C605.403 486.727 604.418 487.868 603.176 488.668C601.934 489.469 600.488 489.895 599.01 489.896Z"
                class="colorfff svgShape"></path>
            <path fill="#3a3a3a"
                d="M708.095 602.024C704.242 601.952 700.446 601.093 696.938 599.499 693.43 597.905 690.285 595.61 687.698 592.756 684.633 589.609 682.361 585.778 681.069 581.58 679.776 577.381 679.501 572.936 680.265 568.61 680.698 566.636 681.89 564.911 683.583 563.808 685.276 562.705 687.335 562.311 689.316 562.712 691.297 563.113 693.041 564.276 694.172 565.951 695.302 567.626 695.73 569.678 695.361 571.665 695.176 573.582 695.401 575.516 696.021 577.339 696.641 579.162 697.642 580.833 698.956 582.24 700.271 583.647 701.87 584.758 703.647 585.5 705.424 586.242 707.338 586.597 709.263 586.543 711.288 586.276 713.337 586.824 714.959 588.067 716.58 589.311 717.641 591.147 717.908 593.173 718.175 595.199 717.627 597.247 716.384 598.869 715.14 600.49 713.304 601.551 711.278 601.818 710.223 601.957 709.159 602.026 708.095 602.024zM511.504 1678.17C461.623 1678.17 412.726 1664.28 370.304 1638.04 362.884 1633.44 355.554 1628.41 348.482 1623.53 328.29 1609.66 309.215 1596.58 286.931 1591.83 285.095 1591.44 283.234 1591.11 281.244 1590.75 273.979 1589.47 265.725 1587.98 258.524 1583.34 247.844 1576.48 242.491 1564.92 238.306 1553.46 224.912 1516.79 218.123 1478.04 218.256 1439 218.397 1375.52 236.419 1308.67 273.388 1234.65 296.301 1188.76 324.028 1144.8 350.843 1102.25 360.74 1086.41 371.138 1069.96 381.073 1053.71 382.139 1051.97 383.853 1050.72 385.839 1050.24 387.825 1049.76 389.92 1050.09 391.663 1051.16 393.406 1052.22 394.655 1053.94 395.134 1055.92 395.613 1057.91 395.283 1060 394.218 1061.75 384.231 1078.09 373.859 1094.54 363.821 1110.53 337.211 1152.74 309.69 1196.39 287.123 1241.6 251.181 1313.48 233.737 1378.05 233.608 1439.1 233.528 1476.32 240.047 1513.26 252.863 1548.21 256.123 1557.2 260.09 1566.01 266.983 1570.43 271.591 1573.4 277.65 1574.49 284.081 1575.56 286.084 1575.92 288.163 1576.3 290.23 1576.73 315.53 1582.07 336.775 1596.69 357.326 1610.81 364.258 1615.59 371.446 1620.52 378.544 1624.93 428.37 1655.41 487.104 1667.96 545.033 1660.52 571.451 1656.96 598.125 1649.07 623.926 1641.43 667.185 1628.59 711.907 1615.4 757.746 1621.66 762.444 1622.3 767.309 1623.12 771.994 1623.93 793.739 1627.63 814.265 1631.13 828.744 1619.76 829.982 1618.79 831.488 1618.21 833.06 1618.12 834.632 1618.03 836.195 1618.42 837.537 1619.25 844.715 1623.49 852.94 1625.64 861.278 1625.44 869.615 1625.24 877.73 1622.71 884.698 1618.13 885.532 1617.53 886.478 1617.1 887.48 1616.87 888.483 1616.64 889.52 1616.62 890.533 1616.79 891.545 1616.97 892.512 1617.35 893.376 1617.91 894.24 1618.47 894.983 1619.19 895.562 1620.04 896.142 1620.89 896.545 1621.85 896.749 1622.85 896.953 1623.86 896.953 1624.9 896.749 1625.91 896.545 1626.91 896.142 1627.87 895.562 1628.72 894.983 1629.57 894.24 1630.29 893.376 1630.85 884.693 1636.66 874.638 1640.09 864.215 1640.79 853.793 1641.5 843.368 1639.45 833.982 1634.87 814.727 1646.85 790.761 1642.75 769.401 1639.1 764.626 1638.3 760.108 1637.53 755.666 1636.92 713.101 1631.11 671.909 1643.34 628.303 1656.18 601.937 1663.97 574.673 1672.04 547.087 1675.75 535.294 1677.35 523.406 1678.16 511.504 1678.17z"
                class="color3A3A3A svgShape"></path>
            <path fill="#3a3a3a"
                d="M403.101 1433.57C401.782 1433.57 400.485 1433.23 399.336 1432.58C398.186 1431.93 397.222 1431 396.535 1429.88C395.848 1428.75 395.462 1427.47 395.414 1426.15C395.365 1424.83 395.656 1423.52 396.259 1422.35C413.96 1387.98 442.338 1360.29 477.128 1343.43C487.667 1338.3 503.571 1331.99 519.976 1335.45C528.359 1337.2 535.496 1341.2 542.389 1345.06C543.891 1345.91 545.392 1346.74 546.894 1347.55C588.613 1370 641.987 1373.22 714.872 1357.68L720.61 1356.39C740.981 1351.98 762.046 1347.41 783.444 1350.81C806.409 1354.44 832.852 1370.82 836.626 1398.16C836.764 1399.17 836.703 1400.19 836.448 1401.16C836.192 1402.14 835.746 1403.06 835.135 1403.87C834.524 1404.68 833.76 1405.35 832.887 1405.86C832.014 1406.38 831.049 1406.71 830.047 1406.85C829.045 1406.99 828.025 1406.93 827.047 1406.67C826.068 1406.41 825.149 1405.97 824.343 1405.36C823.536 1404.75 822.858 1403.98 822.347 1403.11C821.836 1402.24 821.501 1401.27 821.363 1400.27C818.796 1381.58 799.118 1368.88 781.031 1366.02C762.495 1363.08 742.856 1367.31 723.87 1371.45L718.081 1372.74C641.422 1389.06 584.711 1385.38 539.655 1361.11C538.063 1360.26 536.484 1359.37 534.905 1358.54C528.756 1355.1 522.942 1351.84 516.857 1350.55C507.872 1348.67 497.384 1350.82 483.867 1357.34C452.091 1372.74 426.172 1398.03 410.007 1429.42C409.35 1430.68 408.358 1431.74 407.139 1432.47C405.92 1433.2 404.522 1433.58 403.101 1433.57Z"
                class="color3A3A3A svgShape"></path>
            <path fill="#3a3a3a"
                d="M363.782 1400.8C362.292 1400.78 360.837 1400.34 359.594 1399.52 358.351 1398.7 357.373 1397.53 356.779 1396.16 356.185 1394.8 356.001 1393.29 356.248 1391.82 356.496 1390.35 357.164 1388.98 358.173 1387.88 371.638 1373.42 388.43 1362.46 407.091 1355.96 425.752 1349.46 445.718 1347.61 465.255 1350.58 467.233 1350.94 468.992 1352.06 470.156 1353.7 471.32 1355.34 471.796 1357.37 471.482 1359.36 471.169 1361.34 470.09 1363.13 468.478 1364.33 466.866 1365.53 464.847 1366.06 462.854 1365.79 429.21 1360.48 392.575 1373.24 369.507 1398.31 368.78 1399.1 367.895 1399.73 366.909 1400.16 365.923 1400.59 364.858 1400.8 363.782 1400.8zM293.567 1559.34C287.226 1559.34 280.166 1558.36 274.056 1554.4 270.941 1552.28 268.392 1549.44 266.635 1546.1 264.878 1542.77 263.966 1539.06 263.979 1535.3 263.913 1532.37 264.6 1529.48 265.974 1526.9 267.347 1524.32 269.361 1522.14 271.823 1520.56 273.551 1519.53 275.615 1519.21 277.572 1519.68 279.53 1520.15 281.225 1521.37 282.296 1523.08 283.367 1524.78 283.727 1526.84 283.3 1528.81 282.873 1530.77 281.693 1532.5 280.012 1533.6 279.499 1533.92 279.383 1534.77 279.37 1535.41 279.391 1536.59 279.679 1537.75 280.213 1538.8 280.746 1539.85 281.512 1540.76 282.451 1541.47 287.124 1544.51 294.004 1544.15 301.834 1543.44 303.877 1543.25 305.911 1543.88 307.489 1545.19 309.067 1546.5 310.059 1548.38 310.248 1550.43 310.437 1552.47 309.807 1554.5 308.496 1556.08 307.186 1557.66 305.302 1558.65 303.259 1558.84 300.409 1559.03 297.11 1559.34 293.567 1559.34zM838.911 1634.34C837.533 1634.35 836.181 1633.98 834.993 1633.28 833.805 1632.58 832.827 1631.58 832.159 1630.38 803.559 1578.66 803.135 1517.56 802.763 1463.64 802.763 1461.6 803.575 1459.64 805.019 1458.2 806.463 1456.75 808.422 1455.94 810.465 1455.94H810.529C812.572 1455.94 814.531 1456.75 815.975 1458.2 817.42 1459.64 818.231 1461.6 818.231 1463.64 818.591 1515.72 819.001 1574.73 845.701 1623.02 846.348 1624.19 846.678 1625.51 846.66 1626.85 846.641 1628.19 846.274 1629.5 845.596 1630.65 844.917 1631.8 843.949 1632.76 842.788 1633.43 841.627 1634.09 840.313 1634.44 838.975 1634.45L838.911 1634.34z"
                class="color3A3A3A svgShape"></path>
            <path fill="#3a3a3a"
                d="M804.393 1485.4C803.217 1485.4 802.057 1485.13 801.004 1484.61 782.298 1475.47 761.2 1472.42 740.673 1475.89 738.678 1476.19 736.645 1475.69 735.011 1474.51 733.378 1473.32 732.275 1471.55 731.938 1469.56 731.602 1467.57 732.06 1465.53 733.213 1463.87 734.366 1462.21 736.123 1461.08 738.106 1460.7 761.814 1456.71 786.177 1460.23 807.782 1470.78 809.347 1471.55 810.607 1472.82 811.355 1474.39 812.103 1475.97 812.295 1477.75 811.9 1479.45 811.505 1481.14 810.547 1482.66 809.181 1483.74 807.815 1484.82 806.123 1485.41 804.38 1485.4H804.393zM804.458 1505.45H761.879C759.836 1505.45 757.877 1504.64 756.433 1503.2 754.989 1501.75 754.177 1499.79 754.177 1497.75 754.177 1495.71 754.989 1493.75 756.433 1492.3 757.877 1490.86 759.836 1490.05 761.879 1490.05H804.458C806.5 1490.05 808.459 1490.86 809.904 1492.3 811.348 1493.75 812.159 1495.71 812.159 1497.75 812.159 1499.79 811.348 1501.75 809.904 1503.2 808.459 1504.64 806.5 1505.45 804.458 1505.45zM786.191 1599.99C774.231 1600 762.322 1598.43 750.776 1595.31 749.775 1595.07 748.834 1594.63 748.006 1594.02 747.178 1593.4 746.481 1592.63 745.957 1591.75 745.432 1590.86 745.09 1589.88 744.951 1588.86 744.812 1587.84 744.879 1586.8 745.147 1585.81 745.416 1584.82 745.881 1583.89 746.514 1583.08 747.148 1582.27 747.938 1581.59 748.837 1581.09 749.736 1580.59 750.727 1580.28 751.75 1580.16 752.773 1580.05 753.808 1580.15 754.794 1580.44 774.056 1585.63 794.304 1585.96 813.726 1581.41 814.711 1581.17 815.732 1581.14 816.731 1581.3 817.73 1581.46 818.687 1581.82 819.548 1582.36 820.409 1582.89 821.156 1583.59 821.747 1584.41 822.338 1585.23 822.762 1586.16 822.994 1587.14 823.225 1588.13 823.261 1589.15 823.098 1590.15 822.935 1591.15 822.577 1592.11 822.044 1592.97 821.511 1593.83 820.814 1594.57 819.993 1595.17 819.171 1595.76 818.241 1596.18 817.256 1596.41 807.073 1598.79 796.649 1600 786.191 1599.99zM1078.88 1475.71C1076.83 1475.79 1074.84 1475.05 1073.34 1473.66 1071.85 1472.27 1070.96 1470.34 1070.88 1468.3 1070.81 1466.25 1071.55 1464.26 1072.94 1462.77 1074.33 1461.27 1076.25 1460.38 1078.3 1460.31 1095.28 1459.02 1108.39 1450.56 1113.37 1437.73 1116.4 1429.91 1115.54 1422.13 1111.12 1417.43 1105.81 1411.78 1095.83 1410.91 1083.06 1414.99 1058.67 1422.79 1043.27 1426.41 1016.9 1427.23 1008.12 1427.5 999.289 1427.23 990.74 1427.05 975.875 1426.67 961.832 1426.32 947.866 1428.33 928.496 1431.13 890.385 1441.95 870.373 1464.64 869.714 1465.44 868.903 1466.09 867.989 1466.56 867.074 1467.03 866.073 1467.32 865.047 1467.4 864.02 1467.48 862.988 1467.35 862.011 1467.02 861.035 1466.7 860.133 1466.18 859.361 1465.5 858.588 1464.82 857.96 1463.99 857.513 1463.06 857.066 1462.13 856.81 1461.12 856.76 1460.1 856.709 1459.07 856.866 1458.04 857.22 1457.07 857.573 1456.11 858.118 1455.22 858.82 1454.47 887.06 1422.37 939.689 1413.94 945.658 1413.08 960.908 1410.87 976.273 1411.26 991.138 1411.64 999.469 1411.85 1008.08 1412.08 1016.43 1411.81 1041.12 1411.04 1054.94 1407.79 1078.37 1400.26 1103.66 1392.18 1116.77 1400.9 1122.34 1406.82 1130.86 1415.87 1132.93 1429.82 1127.73 1443.22 1120.56 1461.74 1102.52 1473.85 1079.47 1475.61L1078.88 1475.71z"
                class="color3A3A3A svgShape"></path>
            <path fill="#3a3a3a"
                d="M1105.96 1641.25C1100.53 1641.22 1095.11 1640.59 1089.81 1639.38C1081.17 1637.44 1072.37 1633.73 1063.86 1630.13C1056.15 1626.9 1048.95 1623.84 1042.18 1622.15C1036.26 1620.66 1024.21 1620.58 1010.37 1620.48C975.709 1620.25 923.465 1619.89 873.878 1599.4C872.927 1599.03 872.061 1598.47 871.33 1597.75C870.598 1597.04 870.016 1596.19 869.616 1595.25C869.217 1594.31 869.009 1593.3 869.004 1592.28C868.998 1591.26 869.197 1590.24 869.587 1589.3C869.977 1588.35 870.551 1587.5 871.275 1586.78C871.999 1586.06 872.86 1585.49 873.806 1585.1C874.753 1584.72 875.766 1584.53 876.788 1584.54C877.809 1584.55 878.819 1584.76 879.757 1585.17C926.571 1604.51 977.057 1604.86 1010.47 1605.08C1026.58 1605.19 1038.21 1605.27 1045.92 1607.21C1053.84 1609.2 1061.97 1612.62 1069.84 1615.94C1077.71 1619.25 1085.9 1622.71 1093.19 1624.34C1117.09 1629.72 1131.07 1620.31 1133.96 1609.3C1136.25 1600.57 1131.02 1592.91 1120.63 1589.79C1106.78 1585.63 1092.39 1582.09 1078.55 1578.77C1065.53 1575.62 1052.05 1572.36 1038.84 1568.51C1036.91 1567.93 1035.29 1566.62 1034.32 1564.86C1033.34 1563.1 1033.1 1561.03 1033.63 1559.09C1034.16 1557.16 1035.43 1555.5 1037.16 1554.48C1038.89 1553.47 1040.96 1553.17 1042.91 1553.65C1075.33 1561.93 1108.73 1567.36 1137.13 1571.62C1154.88 1574.27 1168.41 1572.1 1176.24 1565.35C1178.71 1563.14 1180.69 1560.45 1182.06 1557.44C1183.44 1554.43 1184.17 1551.17 1184.22 1547.86C1184.22 1534.46 1178.1 1525.25 1148.28 1523.9C1147.81 1523.9 1147.37 1523.9 1147 1523.82C1144.96 1523.67 1143.06 1522.72 1141.72 1521.17C1140.38 1519.62 1139.71 1517.6 1139.86 1515.55C1140.01 1513.51 1140.97 1511.61 1142.52 1510.27C1144.07 1508.94 1146.09 1508.27 1148.13 1508.42H1149.07C1153.63 1508.21 1168.76 1502 1174.34 1491.95C1177.69 1485.95 1176.91 1479.55 1171.93 1472.37C1165.05 1462.48 1152 1464.43 1134.32 1468.28C1129.91 1469.23 1125.75 1470.14 1121.97 1470.59L1021.52 1482.6C1019.49 1482.85 1017.45 1482.27 1015.85 1481.01C1014.24 1479.74 1013.2 1477.89 1012.96 1475.86C1012.72 1473.84 1013.29 1471.79 1014.56 1470.19C1015.82 1468.58 1017.67 1467.54 1019.7 1467.3L1120.13 1455.29C1123.2 1454.93 1127.01 1454.09 1131.04 1453.22C1147.08 1449.74 1171.3 1444.48 1184.57 1463.58C1193.09 1475.86 1194.08 1488.88 1187.34 1500.25C1184.29 1505.22 1180.3 1509.54 1175.6 1512.99C1188.15 1517.7 1199.68 1527.43 1199.67 1547.79C1199.61 1553.31 1198.4 1558.76 1196.1 1563.78C1193.8 1568.81 1190.47 1573.29 1186.33 1576.94C1176.48 1585.42 1162.35 1589.07 1144.24 1587.81C1146.85 1591.44 1148.62 1595.6 1149.42 1599.99C1150.23 1604.38 1150.05 1608.9 1148.9 1613.21C1144.87 1628.44 1129.36 1641.25 1105.96 1641.25Z"
                class="color3A3A3A svgShape"></path>
            <path fill="#3a3a3a"
                d="M1066.91 1525.77C1056.27 1525.77 1045.66 1525.67 1035.06 1525.46 1034.05 1525.46 1033.05 1525.25 1032.12 1524.85 1031.19 1524.46 1030.35 1523.88 1029.64 1523.16 1028.93 1522.44 1028.37 1521.58 1027.99 1520.64 1027.61 1519.71 1027.42 1518.7 1027.43 1517.69 1027.44 1516.68 1027.65 1515.68 1028.05 1514.75 1028.44 1513.82 1029.02 1512.98 1029.74 1512.27 1030.46 1511.56 1031.31 1511 1032.25 1510.62 1033.19 1510.24 1034.19 1510.05 1035.21 1510.06H1035.36C1072.59 1510.78 1110.25 1510.21 1147.41 1508.39 1149.45 1508.29 1151.45 1509.01 1152.97 1510.38 1154.48 1511.75 1155.39 1513.67 1155.49 1515.72 1155.59 1517.76 1154.87 1519.76 1153.5 1521.27 1152.13 1522.79 1150.21 1523.7 1148.17 1523.8 1121.24 1525.12 1094.01 1525.77 1066.91 1525.77zM1453.25 969.595C1451.35 969.587 1449.52 968.878 1448.11 967.605 1443.94 963.707 1439.97 959.593 1436.22 955.282 1430.63 949.069 1425.36 943.19 1418.99 939.082 1413.32 935.426 1406.47 934.05 1399.82 935.232 1398.25 935.498 1396.74 936.082 1395.39 936.949 1394.04 937.817 1392.89 938.948 1391.99 940.276 1391.47 941.16 1390.77 941.929 1389.94 942.537 1389.1 943.146 1388.16 943.581 1387.16 943.819 1386.16 944.056 1385.12 944.09 1384.1 943.919 1383.09 943.748 1382.12 943.375 1381.25 942.822 1380.38 942.269 1379.63 941.548 1379.05 940.701 1378.46 939.854 1378.05 938.898 1377.84 937.89 1377.63 936.882 1377.63 935.842 1377.83 934.832 1378.03 933.822 1378.43 932.862 1379 932.01 1380.98 928.96 1383.55 926.341 1386.56 924.309 1389.57 922.278 1392.96 920.876 1396.53 920.187 1406.44 918.018 1418.23 920.316 1427.33 926.182 1435.43 931.406 1441.66 938.325 1447.68 945.026 1451.07 948.933 1454.66 952.665 1458.44 956.206 1459.59 957.247 1460.41 958.615 1460.77 960.128 1461.14 961.641 1461.03 963.229 1460.48 964.682 1459.92 966.136 1458.94 967.387 1457.66 968.271 1456.38 969.155 1454.86 969.63 1453.3 969.633L1453.25 969.595z"
                class="color3A3A3A svgShape"></path>
            <path fill="#3a3a3a"
                d="M1473.85 936.566C1472.55 936.565 1471.27 936.234 1470.13 935.603C1461.93 931.072 1453.44 926.374 1444.64 924.833C1437.94 923.665 1428.87 924.474 1423.53 930.225C1422.86 931.003 1422.03 931.637 1421.1 932.089C1420.18 932.542 1419.17 932.804 1418.14 932.859C1417.11 932.914 1416.08 932.762 1415.11 932.412C1414.14 932.062 1413.25 931.52 1412.49 930.819C1411.73 930.118 1411.13 929.272 1410.7 928.332C1410.28 927.392 1410.05 926.376 1410.02 925.344C1410 924.313 1410.18 923.288 1410.56 922.329C1410.94 921.37 1411.51 920.498 1412.24 919.763C1420.32 911.021 1433.43 907.247 1447.28 909.661C1458.63 911.65 1468.71 917.208 1477.59 922.125C1479.08 922.952 1480.26 924.252 1480.93 925.821C1481.61 927.39 1481.74 929.139 1481.32 930.793C1480.89 932.446 1479.92 933.911 1478.57 934.956C1477.22 936.001 1475.56 936.567 1473.85 936.566Z"
                class="color3A3A3A svgShape"></path>
            <path fill="#3a3a3a"
                d="M1436.68 917.838C1434.67 917.838 1432.74 917.053 1431.3 915.65 1429.86 914.247 1429.03 912.337 1428.98 910.328 1428.83 900.738 1430.84 891.237 1434.88 882.534 1438.91 873.831 1444.85 866.149 1452.26 860.061 1452.98 859.483 1453.71 858.918 1454.46 858.354 1456.9 856.467 1459.21 854.682 1460.17 852.834 1462.65 848.033 1457.4 840.126 1454.05 835.838 1449.91 830.537 1445.47 825.235 1441.21 820.114 1430.66 807.496 1419.75 794.441 1411.47 779.486 1410.68 778.062 1409.63 776.406 1408.5 774.647 1402.08 764.596 1391.34 747.78 1400.34 723.211 1400.68 722.253 1401.21 721.371 1401.89 720.617 1402.57 719.863 1403.4 719.251 1404.32 718.818 1405.24 718.385 1406.24 718.139 1407.25 718.094 1408.27 718.048 1409.28 718.205 1410.24 718.554 1411.2 718.904 1412.07 719.439 1412.82 720.129 1413.57 720.819 1414.17 721.651 1414.6 722.576 1415.02 723.5 1415.26 724.5 1415.29 725.517 1415.33 726.534 1415.16 727.548 1414.8 728.5 1408.39 745.919 1415.37 756.74 1421.48 766.355 1422.76 768.319 1423.93 770.206 1424.96 772.028 1432.51 785.686 1442.48 797.611 1453.03 810.23 1457.4 815.454 1461.91 820.858 1466.21 826.352 1476.2 839.189 1478.78 850.421 1473.92 859.907 1471.35 864.797 1467.42 867.865 1463.92 870.561 1463.26 871.062 1462.63 871.549 1461.99 872.063 1456.4 876.648 1451.92 882.436 1448.88 888.995 1445.84 895.554 1444.33 902.715 1444.44 909.943 1444.49 911.984 1443.73 913.96 1442.32 915.438 1440.91 916.916 1438.98 917.774 1436.93 917.825L1436.68 917.838zM1420.41 710.722C1419 710.722 1417.59 710.722 1416.17 710.555 1397.45 709.027 1377.66 693.636 1378.17 673.162 1378.21 671.12 1379.07 669.178 1380.54 667.765 1382.02 666.352 1384 665.583 1386.04 665.627 1388.08 665.671 1390.02 666.525 1391.44 668.001 1392.85 669.477 1393.62 671.453 1393.57 673.496 1393.32 685.113 1405.94 694.265 1417.41 695.202 1428.89 696.139 1441.15 691.903 1456.56 681.929 1482.65 665.02 1504.43 642.268 1520.19 615.475 1529.9 598.929 1540.23 574.399 1534.31 551.588 1531.75 541.537 1523.93 527.751 1510.58 521.936 1500.96 517.751 1490.37 518.727 1479.13 524.811 1477.33 525.783 1475.22 526.001 1473.26 525.418 1471.3 524.834 1469.66 523.496 1468.69 521.699 1467.71 519.901 1467.5 517.791 1468.08 515.833 1468.66 513.874 1470 512.228 1471.8 511.256 1491.27 500.73 1506.97 503.554 1516.73 507.816 1535.13 515.826 1545.58 533.681 1549.23 547.712 1555.04 570.137 1549.75 595.553 1533.49 623.267 1516.51 652.144 1493.04 676.667 1464.93 694.894 1454.19 701.813 1438.23 710.722 1420.41 710.722z"
                class="color3A3A3A svgShape"></path>
            <path fill="#3a3a3a"
                d="M1611.66 610.893C1610.26 610.894 1608.88 610.508 1607.69 609.776 1597.07 603.358 1586.08 596.696 1574.46 592.922 1572.85 592.395 1571.29 591.869 1569.78 591.356 1560.28 588.108 1554.54 586.221 1546.6 589.276 1545.65 589.689 1544.63 589.906 1543.59 589.915 1542.56 589.924 1541.53 589.725 1540.58 589.329 1539.62 588.933 1538.75 588.349 1538.03 587.611 1537.3 586.872 1536.74 585.996 1536.36 585.033 1535.98 584.071 1535.8 583.041 1535.83 582.007 1535.85 580.973 1536.09 579.955 1536.52 579.014 1536.95 578.073 1537.56 577.228 1538.33 576.53 1539.09 575.832 1539.99 575.295 1540.96 574.951 1554.16 569.752 1564.16 573.167 1574.75 576.774 1576.2 577.261 1577.69 577.775 1579.24 578.275 1592.54 582.601 1604.3 589.713 1615.66 596.593 1617.1 597.462 1618.22 598.781 1618.84 600.347 1619.46 601.912 1619.56 603.639 1619.1 605.262 1618.65 606.885 1617.68 608.314 1616.33 609.331 1614.99 610.348 1613.35 610.897 1611.66 610.893zM1579.66 625.501C1577.9 625.501 1576.18 624.894 1574.81 623.781 1564.52 615.443 1552.39 609.674 1539.43 606.952 1537.43 606.535 1535.68 605.341 1534.56 603.631 1533.44 601.922 1533.05 599.838 1533.46 597.838 1533.88 595.838 1535.08 594.086 1536.79 592.966 1538.49 591.847 1540.58 591.452 1542.58 591.869 1557.94 595.098 1572.32 601.936 1584.52 611.817 1585.75 612.82 1586.65 614.181 1587.08 615.713 1587.51 617.245 1587.45 618.873 1586.92 620.373 1586.39 621.873 1585.41 623.171 1584.11 624.09 1582.81 625.008 1581.25 625.501 1579.66 625.501zM1513.85 733.558C1512.58 733.558 1511.33 733.24 1510.22 732.634 1500.51 727.359 1492.05 720.076 1485.38 711.271 1478.71 702.466 1474 692.341 1471.55 681.57 1471.3 680.572 1471.25 679.533 1471.41 678.515 1471.57 677.497 1471.93 676.521 1472.47 675.645 1473.01 674.768 1473.72 674.009 1474.56 673.412 1475.4 672.815 1476.35 672.393 1477.35 672.169 1478.36 671.946 1479.4 671.927 1480.41 672.113 1481.42 672.298 1482.39 672.685 1483.25 673.251 1484.11 673.816 1484.85 674.548 1485.42 675.404 1486 676.26 1486.39 677.221 1486.59 678.233 1488.54 686.844 1492.31 694.939 1497.64 701.98 1502.97 709.021 1509.74 714.845 1517.5 719.065 1519.01 719.876 1520.21 721.169 1520.91 722.74 1521.6 724.311 1521.75 726.069 1521.33 727.735 1520.91 729.401 1519.95 730.878 1518.59 731.934 1517.24 732.989 1515.57 733.56 1513.85 733.558z"
                class="color3A3A3A svgShape"></path>
            <path fill="#3a3a3a"
                d="M1385.09 1388.46C1384.47 1388.46 1383.85 1388.38 1383.25 1388.24C1382.27 1388 1381.34 1387.57 1380.53 1386.98C1379.71 1386.38 1379.02 1385.63 1378.49 1384.76C1377.97 1383.9 1377.62 1382.94 1377.46 1381.94C1377.31 1380.94 1377.35 1379.92 1377.59 1378.94C1386.58 1342.3 1421.51 1318.94 1447.02 1301.92C1500.15 1266.42 1552.96 1228.93 1603.99 1190.47C1636.08 1166.26 1666.77 1141.95 1688.35 1110.89C1700.58 1093.24 1710.02 1073.12 1719.16 1053.66C1728.3 1034.2 1737.6 1014.32 1749.96 996.127C1750.97 994.638 1751.99 993.162 1753.03 991.673C1758.83 983.317 1764.3 975.422 1765.87 966.693C1768.29 952.881 1760.53 938.453 1753.03 924.577C1752.34 923.293 1751.65 922.01 1750.98 920.726C1732.36 885.925 1720.4 847.955 1715.72 808.767C1713.73 792.195 1713.05 775.392 1712.39 759.128C1711.74 743.083 1711.11 726.498 1709.12 710.44C1704.6 673.124 1693.02 644.383 1674.7 625.039C1669 619.262 1662.95 613.835 1656.59 608.788C1647.43 601.214 1637.94 593.384 1630.42 583.372C1628.4 580.396 1626.6 577.282 1625.01 574.052C1614.75 554.592 1593.21 514.119 1554 524.953C1553.02 525.257 1551.98 525.361 1550.96 525.257C1549.93 525.154 1548.94 524.846 1548.03 524.351C1547.13 523.857 1546.33 523.186 1545.69 522.378C1545.05 521.57 1544.58 520.642 1544.31 519.649C1544.03 518.656 1543.96 517.617 1544.09 516.596C1544.23 515.574 1544.56 514.589 1545.08 513.7C1545.61 512.811 1546.3 512.035 1547.13 511.419C1547.95 510.803 1548.89 510.359 1549.9 510.114C1601.01 495.994 1627.36 545.62 1638.62 566.825C1639.86 569.319 1641.23 571.748 1642.72 574.104C1649.13 582.653 1657.54 589.584 1666.41 596.927C1673.25 602.37 1679.76 608.222 1685.9 614.449C1706.53 636.271 1719.48 667.925 1724.41 708.591C1726.42 725.278 1727.12 742.158 1727.78 758.512C1728.42 774.468 1729.07 790.963 1731.02 806.931C1735.47 844.223 1746.85 880.356 1764.56 913.474L1766.59 917.235C1774.93 932.703 1784.4 950.25 1781.05 969.325C1778.94 981.391 1772.22 991.07 1765.73 1000.43C1764.73 1001.87 1763.73 1003.3 1762.76 1004.74C1751.13 1021.93 1742.01 1041.36 1733.24 1060.17C1723.84 1080.21 1714.12 1100.92 1701.15 1119.64C1678.26 1152.63 1646.58 1177.8 1613.4 1202.81C1562.14 1241.43 1509.09 1279.09 1455.73 1314.75C1425.36 1335.05 1399.66 1354.16 1392.7 1382.65C1392.27 1384.33 1391.29 1385.82 1389.91 1386.88C1388.53 1387.94 1386.83 1388.49 1385.09 1388.46Z"
                class="color3A3A3A svgShape"></path>
            <path fill="#3a3a3a"
                d="M1713.86 1001.2C1712.05 1001.2 1710.3 1000.57 1708.91 999.418 1707.52 998.263 1706.58 996.656 1706.25 994.878 1705.93 993.1 1706.24 991.265 1707.13 989.694 1708.03 988.122 1709.44 986.914 1711.13 986.282 1712.64 985.504 1713.96 984.412 1715 983.08 1716.05 981.747 1716.79 980.206 1717.19 978.56 1717.59 976.914 1717.63 975.202 1717.3 973.54 1716.98 971.878 1716.3 970.304 1715.32 968.927 1713.94 967.415 1713.22 965.419 1713.32 963.378 1713.42 961.336 1714.32 959.417 1715.83 958.041 1717.34 956.666 1719.34 955.947 1721.38 956.044 1723.42 956.14 1725.34 957.043 1726.72 958.555 1729.4 961.797 1731.29 965.618 1732.24 969.717 1733.18 973.816 1733.16 978.079 1732.18 982.169 1731.19 986.259 1729.26 990.062 1726.55 993.278 1723.84 996.494 1720.42 999.034 1716.55 1000.7 1715.69 1001.02 1714.78 1001.19 1713.86 1001.2zM1502.45 587.697C1500.66 587.698 1498.92 587.071 1497.54 585.926 1475.87 567.955 1472.63 558.122 1466.73 540.267 1464.88 534.657 1462.79 528.303 1459.72 520.409 1456.93 513.285 1453.98 506.045 1451.12 499.036 1439.57 470.796 1427.67 441.696 1423.53 410.465 1423.1 407.153 1422.71 403.815 1422.25 400.465 1420.52 385.549 1418.86 371.455 1412.91 358.99 1409.61 352.11 1403.57 344.704 1396.53 344.562 1390.11 344.434 1384.32 350.595 1381.89 356.757 1376.41 370.723 1381.71 386.615 1387.32 403.43 1393.52 422.056 1399.95 441.323 1392.55 460.463 1392.19 461.421 1391.65 462.299 1390.96 463.047 1390.26 463.794 1389.42 464.395 1388.49 464.815 1387.56 465.236 1386.55 465.466 1385.53 465.494 1384.51 465.522 1383.49 465.347 1382.54 464.978 1381.59 464.61 1380.72 464.055 1379.98 463.347 1379.25 462.639 1378.66 461.792 1378.25 460.854 1377.85 459.917 1377.63 458.908 1377.62 457.886 1377.61 456.865 1377.8 455.851 1378.18 454.904 1383.59 440.938 1378.3 425.085 1372.7 408.308 1366.48 389.618 1360.03 370.299 1367.57 351.122 1371.94 339.98 1382.74 328.876 1396.86 329.159 1408.78 329.402 1419.97 338.08 1426.81 352.341 1433.88 367.129 1435.79 383.149 1437.56 398.681 1437.95 401.941 1438.33 405.202 1438.76 408.436 1442.61 437.665 1453.65 464.622 1465.33 493.157 1468.2 500.217 1471.2 507.521 1474.02 514.774 1477.24 523.04 1479.4 529.612 1481.31 535.402 1486.77 552.012 1489.01 558.892 1507.28 574.014 1508.5 575.025 1509.38 576.388 1509.79 577.917 1510.21 579.446 1510.15 581.066 1509.61 582.557 1509.07 584.048 1508.09 585.337 1506.79 586.247 1505.49 587.158 1503.95 587.647 1502.36 587.646L1502.45 587.697z"
                class="color3A3A3A svgShape"></path>
            <path fill="#3a3a3a"
                d="M1349.03 501.437C1347.14 501.45 1345.32 500.769 1343.9 499.524C1337.29 493.797 1329.41 489.72 1320.92 487.629C1312.42 485.538 1303.55 485.493 1295.04 487.496C1290.4 488.745 1285.85 490.276 1281.4 492.079C1277.2 493.671 1272.85 495.327 1268.29 496.597C1255.09 500.281 1243.41 499.357 1234.5 493.94C1222.45 486.611 1216.29 470.411 1219.86 455.431C1222.76 443.223 1231.28 432.146 1243.87 424.251C1261.85 412.942 1285.59 409.207 1314.27 413.16C1341.94 417.025 1368.54 426.457 1392.47 440.887C1394.22 441.946 1395.47 443.656 1395.96 445.641C1396.45 447.625 1396.13 449.723 1395.07 451.471C1394.01 453.219 1392.3 454.475 1390.32 454.962C1388.33 455.45 1386.23 455.129 1384.49 454.07C1362.37 440.704 1337.76 431.97 1312.16 428.397C1287.17 424.944 1266.94 427.935 1252.06 437.28C1243.08 442.928 1236.78 450.835 1234.84 458.961C1232.81 467.51 1236.12 476.932 1242.54 480.783C1248.96 484.634 1257.94 483.504 1264.17 481.758C1268.02 480.667 1271.87 479.191 1275.97 477.676C1281.02 475.647 1286.2 473.932 1291.47 472.542C1302.39 469.966 1313.77 470.019 1324.66 472.697C1335.56 475.375 1345.66 480.601 1354.14 487.946C1355.32 488.983 1356.15 490.354 1356.52 491.876C1356.9 493.398 1356.8 494.999 1356.24 496.464C1355.68 497.929 1354.69 499.189 1353.4 500.075C1352.11 500.962 1350.57 501.432 1349.01 501.424L1349.03 501.437Z"
                class="color3A3A3A svgShape"></path>
            <path fill="#3a3a3a"
                d="M1448.19 666.655C1447.11 666.654 1446.04 666.425 1445.05 665.983 1444.06 665.541 1443.18 664.895 1442.45 664.087 1431.6 651.97 1423.29 650.75 1421.33 650.648 1401.1 656.45 1381.23 651.264 1362.01 646.232 1348.68 642.753 1336.09 639.454 1323.5 639.583 1313.46 639.672 1303.53 642.317 1293.01 645.115 1290.32 645.821 1287.62 646.54 1284.94 647.22 1271.41 650.596 1255.49 653.394 1240.01 648.504 1224.53 643.613 1209.77 629.031 1211.1 610.508 1212.39 593.153 1227.91 580.74 1242.6 577.428 1258.01 573.963 1273.41 578.07 1285.13 582.05L1285.57 582.191C1289.26 583.474 1293.09 584.758 1295.66 584.078 1297.94 583.487 1300.32 580.984 1302.18 577.185 1304.85 571.766 1305.99 565.72 1305.48 559.701 1304.96 553.681 1302.82 547.916 1299.27 543.028 1295.72 538.139 1290.9 534.314 1285.33 531.963 1279.77 529.612 1273.67 528.826 1267.69 529.69 1261.96 530.511 1256.3 532.835 1250.32 535.299 1246.85 536.724 1243.27 538.187 1239.54 539.42 1224.67 544.31 1211.51 542.963 1202.48 535.569 1190.49 525.813 1189.64 508.433 1195.1 496.289 1200.71 483.71 1211.55 475.404 1220.37 469.577 1221.21 468.976 1222.17 468.551 1223.18 468.327 1224.19 468.103 1225.23 468.085 1226.25 468.273 1227.26 468.462 1228.23 468.853 1229.1 469.424 1229.96 469.994 1230.7 470.733 1231.27 471.595 1231.84 472.457 1232.23 473.426 1232.42 474.442 1232.61 475.459 1232.59 476.503 1232.36 477.513 1232.14 478.522 1231.72 479.477 1231.12 480.318 1230.51 481.16 1229.75 481.873 1228.87 482.413 1218.34 489.358 1212.27 495.57 1209.17 502.541 1206.17 509.254 1206.5 518.971 1212.19 523.605 1218.95 529.099 1230.17 526.173 1234.72 524.735 1237.92 523.682 1241.14 522.373 1244.47 520.999 1251.06 518.291 1257.88 515.48 1265.5 514.389 1274.25 513.133 1283.18 514.288 1291.32 517.729 1299.46 521.17 1306.51 526.766 1311.7 533.916 1316.9 541.066 1320.04 549.497 1320.8 558.302 1321.56 567.108 1319.9 575.953 1316 583.885 1312.05 591.946 1306.35 597.132 1299.52 598.904 1292.5 600.727 1285.9 598.493 1280.6 596.683L1280.19 596.542C1270.4 593.217 1257.66 589.739 1245.98 592.37 1236.99 594.373 1227.17 601.779 1226.47 611.522 1225.74 621.599 1235.15 630.777 1244.66 633.729 1256.42 637.439 1269.7 635.013 1281.14 632.163 1283.71 631.508 1286.36 630.879 1288.98 630.122 1299.96 627.195 1311.32 624.179 1323.29 624.076 1337.93 623.935 1352.16 627.645 1365.87 631.226 1384.15 636.001 1401.42 640.52 1417.82 635.513 1418.2 635.398 1418.59 635.308 1418.99 635.244 1420.67 635.013 1435.83 633.537 1453.89 653.703 1454.88 654.81 1455.53 656.18 1455.76 657.647 1455.99 659.115 1455.79 660.618 1455.19 661.974 1454.58 663.331 1453.6 664.484 1452.35 665.294 1451.11 666.104 1449.65 666.536 1448.17 666.539L1448.19 666.655zM1423.52 601.792C1421.9 601.789 1420.32 601.272 1419 600.316 1394.11 582.345 1386.23 544.683 1401.81 518.162 1402.31 517.26 1402.98 516.466 1403.79 515.828 1404.6 515.19 1405.53 514.721 1406.52 514.448 1407.52 514.175 1408.55 514.104 1409.57 514.24 1410.6 514.375 1411.58 514.713 1412.47 515.236 1413.35 515.758 1414.13 516.452 1414.74 517.279 1415.36 518.106 1415.8 519.047 1416.04 520.047 1416.29 521.048 1416.33 522.087 1416.17 523.104 1416 524.121 1415.63 525.094 1415.09 525.967 1403.53 545.581 1409.62 574.476 1428.04 587.813 1429.36 588.766 1430.35 590.114 1430.86 591.664 1431.37 593.214 1431.37 594.885 1430.87 596.437 1430.37 597.989 1429.38 599.341 1428.06 600.299 1426.74 601.257 1425.15 601.77 1423.52 601.766V601.792zM1501.9 321.354C1499.93 321.357 1498.03 320.604 1496.6 319.25 1495.17 317.896 1494.31 316.045 1494.2 314.076 1493.34 298.852 1480.89 284.937 1465.86 282.396 1463.84 282.055 1462.04 280.928 1460.86 279.262 1459.67 277.597 1459.2 275.528 1459.54 273.513 1459.88 271.498 1461.01 269.7 1462.67 268.516 1464.34 267.331 1466.41 266.857 1468.42 267.198 1490.62 270.959 1508.32 290.74 1509.58 313.216 1509.63 314.227 1509.49 315.239 1509.16 316.195 1508.82 317.15 1508.3 318.031 1507.63 318.785 1506.95 319.54 1506.14 320.154 1505.22 320.593 1504.31 321.031 1503.32 321.286 1502.31 321.342L1501.9 321.354zM1554.71 363.394C1554.06 363.394 1553.42 363.312 1552.8 363.15 1550.82 362.642 1549.12 361.369 1548.08 359.612 1547.04 357.855 1546.75 355.757 1547.25 353.779 1559.74 305.001 1539.02 248.238 1497.99 218.996 1497.16 218.406 1496.46 217.66 1495.93 216.8 1495.4 215.94 1495.04 214.984 1494.87 213.985 1494.71 212.986 1494.74 211.964 1494.97 210.979 1495.2 209.993 1495.62 209.062 1496.21 208.239 1496.8 207.417 1497.55 206.718 1498.41 206.184 1499.27 205.65 1500.23 205.29 1501.23 205.126 1502.22 204.961 1503.25 204.995 1504.23 205.226 1505.22 205.456 1506.15 205.878 1506.97 206.468 1529.46 222.501 1547.34 246.389 1557.34 273.731 1567.34 301.073 1569.06 330.879 1562.21 357.63 1561.78 359.287 1560.8 360.754 1559.45 361.798 1558.09 362.841 1556.42 363.403 1554.71 363.394zM1635.48 323.113C1634.26 323.113 1633.05 322.822 1631.97 322.266 1630.88 321.709 1629.94 320.903 1629.23 319.912 1628.51 318.922 1628.05 317.776 1627.86 316.569 1627.68 315.363 1627.79 314.13 1628.17 312.972 1629.2 309.818 1629.59 306.491 1629.32 303.184 1629.04 299.878 1628.11 296.659 1626.58 293.717 1626.05 292.821 1625.71 291.828 1625.58 290.797 1625.45 289.766 1625.53 288.719 1625.81 287.719 1626.09 286.719 1626.58 285.786 1627.23 284.978 1627.88 284.169 1628.69 283.501 1629.61 283.014 1630.53 282.527 1631.54 282.23 1632.57 282.143 1633.61 282.055 1634.65 282.178 1635.64 282.504 1636.62 282.83 1637.54 283.352 1638.31 284.04 1639.09 284.727 1639.73 285.565 1640.17 286.503 1642.69 291.281 1644.22 296.519 1644.66 301.901 1645.1 307.284 1644.45 312.7 1642.74 317.824 1642.24 319.355 1641.26 320.689 1639.96 321.638 1638.66 322.587 1637.09 323.103 1635.48 323.113z"
                class="color3A3A3A svgShape"></path>
            <path fill="#699EF5"
                d="M1307.52 1188.1H1307.26C1305.22 1188.03 1303.29 1187.16 1301.89 1185.67 1300.5 1184.18 1299.75 1182.19 1299.82 1180.15L1309.71 870.369C1309.78 868.326 1310.65 866.393 1312.14 864.994 1313.63 863.596 1315.62 862.846 1317.66 862.911 1319.7 862.976 1321.63 863.849 1323.03 865.339 1324.43 866.83 1325.18 868.814 1325.12 870.857L1315.21 1180.64C1315.14 1182.64 1314.31 1184.53 1312.87 1185.92 1311.44 1187.31 1309.52 1188.09 1307.52 1188.1zM1307.52 1284.95C1305.48 1284.95 1303.52 1284.14 1302.07 1282.69 1300.63 1281.25 1299.82 1279.29 1299.82 1277.25V1233.46C1299.82 1231.42 1300.63 1229.46 1302.07 1228.01 1303.52 1226.57 1305.48 1225.76 1307.52 1225.76 1309.56 1225.76 1311.52 1226.57 1312.96 1228.01 1314.41 1229.46 1315.22 1231.42 1315.22 1233.46V1277.25C1315.22 1279.29 1314.41 1281.25 1312.96 1282.69 1311.52 1284.14 1309.56 1284.95 1307.52 1284.95zM489.104 1734.9V1756.47C489.104 1760.55 490.727 1764.47 493.616 1767.36 496.505 1770.25 500.423 1771.87 504.508 1771.87H506.215C510.301 1771.87 514.219 1770.25 517.108 1767.36 519.996 1764.47 521.619 1760.55 521.619 1756.47V1735.15C510.742 1735 499.904 1734.92 489.104 1734.9z"
                class="color699EF5 svgShape"></path>
            <path fill="#699EF5"
                d="M506.151 1779.57H504.508C498.38 1779.57 492.503 1777.14 488.17 1772.81 483.837 1768.47 481.403 1762.6 481.403 1756.47V1734.9C481.403 1732.86 482.214 1730.9 483.659 1729.46 485.103 1728.01 487.062 1727.2 489.105 1727.2 500.773 1727.2 511.427 1727.29 521.671 1727.38 523.702 1727.4 525.645 1728.22 527.075 1729.66 528.506 1731.1 529.309 1733.05 529.308 1735.08V1756.47C529.308 1759.51 528.709 1762.52 527.545 1765.32 526.38 1768.13 524.674 1770.68 522.523 1772.82 520.372 1774.97 517.819 1776.67 515.009 1777.83 512.2 1778.99 509.19 1779.58 506.151 1779.57zM496.807 1742.63V1756.47C496.807 1758.51 497.618 1760.47 499.062 1761.91 500.507 1763.36 502.466 1764.17 504.508 1764.17H506.216C508.258 1764.17 510.217 1763.36 511.662 1761.91 513.106 1760.47 513.918 1758.51 513.918 1756.47V1742.78C508.359 1742.68 502.66 1742.64 496.807 1742.63zM1250.67 1734.9V1756.47C1250.67 1760.55 1252.29 1764.47 1255.18 1767.36 1258.07 1770.25 1261.98 1771.87 1266.07 1771.87H1267.78C1271.86 1771.87 1275.78 1770.25 1278.67 1767.36 1281.56 1764.47 1283.18 1760.55 1283.18 1756.47V1735.15C1272.39 1735 1261.55 1734.92 1250.67 1734.9z"
                class="color699EF5 svgShape"></path>
            <path fill="#699EF5"
                d="M1267.78 1779.57H1266.07C1259.94 1779.57 1254.06 1777.14 1249.73 1772.81C1245.4 1768.47 1242.96 1762.6 1242.96 1756.47V1734.9C1242.96 1732.86 1243.77 1730.9 1245.22 1729.46C1246.66 1728.01 1248.62 1727.2 1250.66 1727.2C1262.33 1727.2 1272.99 1727.29 1283.24 1727.38C1285.27 1727.4 1287.21 1728.22 1288.64 1729.66C1290.07 1731.11 1290.87 1733.05 1290.87 1735.08V1756.47C1290.87 1762.59 1288.44 1768.47 1284.11 1772.8C1279.78 1777.13 1273.9 1779.57 1267.78 1779.57ZM1258.37 1742.69V1756.47C1258.37 1758.51 1259.18 1760.47 1260.62 1761.91C1262.07 1763.36 1264.03 1764.17 1266.07 1764.17H1267.78C1269.82 1764.17 1271.78 1763.36 1273.22 1761.91C1274.67 1760.47 1275.48 1758.51 1275.48 1756.47V1742.78C1269.96 1742.68 1264.28 1742.64 1258.37 1742.63V1742.69Z"
                class="color699EF5 svgShape"></path>
            <path fill="#3a3a3a"
                d="M886.392 1628.66C885.235 1628.66 884.093 1628.39 883.051 1627.89C882.009 1627.39 881.093 1626.66 880.372 1625.75C867.535 1609.7 860.848 1538.06 859.628 1523.86C857.882 1503.53 852.992 1434.74 863.133 1403.27C866.38 1393.22 871.053 1387.47 877.42 1385.67C879.371 1385.15 881.451 1385.41 883.212 1386.4C884.974 1387.39 886.274 1389.04 886.833 1390.98C887.393 1392.92 887.166 1395 886.202 1396.78C885.238 1398.56 883.615 1399.89 881.681 1400.48C881.335 1400.72 878.318 1403.16 875.764 1416.07C871.194 1439.32 871.155 1483.13 875.687 1530.43C880.269 1578.23 887.727 1610.27 892.374 1616.15C893.277 1617.29 893.843 1618.65 894.005 1620.09C894.167 1621.53 893.92 1622.99 893.291 1624.3C892.662 1625.6 891.677 1626.7 890.45 1627.47C889.223 1628.25 887.803 1628.66 886.354 1628.66H886.392Z"
                class="color3A3A3A svgShape"></path>
            <path fill="#3a3a3a"
                d="M879.5 1393.09C896.277 1388.63 903.183 1433.3 903.183 1433.3L864.597 1459.59C864.597 1459.59 867.292 1396.35 879.5 1393.09Z"
                class="color3A3A3A svgShape"></path>
            <path fill="#3a3a3a"
                d="M864.596 1467.29C863.556 1467.29 862.527 1467.08 861.57 1466.67 860.613 1466.26 859.749 1465.67 859.029 1464.92 858.309 1464.17 857.749 1463.28 857.382 1462.3 857.015 1461.33 856.849 1460.29 856.894 1459.25 856.894 1458.6 857.6 1442.9 859.821 1426.52 863.441 1399.88 868.563 1388.01 877.51 1385.65 879.797 1385.03 882.192 1384.91 884.529 1385.3 886.867 1385.7 889.092 1386.59 891.052 1387.92 904.697 1396.83 909.883 1426.3 910.782 1432.13 911.002 1433.57 910.81 1435.04 910.228 1436.37 909.646 1437.71 908.699 1438.85 907.496 1439.66L868.922 1465.94C867.651 1466.82 866.142 1467.29 864.596 1467.29zM882.105 1400.54C878.768 1404.93 875.186 1423.29 873.325 1444.32L894.736 1429.76C892.439 1418.59 887.74 1404.08 882.67 1400.81 882.495 1400.69 882.305 1400.6 882.105 1400.54zM876.766 1592.29C876.766 1592.29 878.999 1635.13 888.909 1624.5 896.611 1616.28 898.485 1600.21 898.485 1600.21L876.766 1592.29z"
                class="color3A3A3A svgShape"></path>
            <path fill="#3a3a3a"
                d="M885.995 1633.89C884.801 1633.89 883.616 1633.69 882.49 1633.29 879.358 1632.15 871.027 1629.12 869.128 1592.69 869.054 1591.42 869.296 1590.15 869.831 1589 870.366 1587.85 871.179 1586.84 872.196 1586.08 873.212 1585.32 874.402 1584.82 875.659 1584.63 876.915 1584.44 878.199 1584.56 879.397 1584.99L901.116 1592.92C902.745 1593.51 904.125 1594.64 905.034 1596.12 905.942 1597.6 906.326 1599.34 906.122 1601.06 905.904 1602.96 903.658 1619.91 894.569 1629.68 893.523 1630.96 892.217 1631.99 890.738 1632.72 889.259 1633.44 887.642 1633.84 885.995 1633.89zM885.584 1603.69C886.033 1607.14 886.572 1610.35 887.15 1613.01 888.216 1610.48 889.075 1607.87 889.717 1605.2L885.584 1603.69zM1084.1 1440.15C1083.55 1440.16 1083 1440.1 1082.47 1439.97 1073.56 1438.05 1065.38 1433.64 1058.88 1427.27 1056.57 1425.02 1053.43 1421.42 1052.83 1416.37 1052.62 1414.37 1053.21 1412.36 1054.45 1410.79 1055.7 1409.21 1057.52 1408.19 1059.52 1407.93 1061.51 1407.68 1063.53 1408.21 1065.13 1409.42 1066.74 1410.64 1067.8 1412.43 1068.11 1414.42 1068.51 1415.11 1069.03 1415.73 1069.65 1416.25 1074.1 1420.58 1079.67 1423.59 1085.73 1424.93 1087.58 1425.34 1089.22 1426.41 1090.33 1427.95 1091.44 1429.49 1091.94 1431.39 1091.73 1433.27 1091.53 1435.16 1090.64 1436.9 1089.23 1438.17 1087.82 1439.44 1086 1440.15 1084.1 1440.15zM1142.11 1500.77C1140.99 1500.77 1139.88 1500.52 1138.87 1500.05 1137.85 1499.58 1136.95 1498.9 1136.23 1498.05 1132.77 1493.93 1130.27 1489.11 1128.89 1483.92 1127.51 1478.73 1127.29 1473.3 1128.24 1468.02 1129.53 1461.31 1132.6 1456.13 1137.23 1453.08 1138.93 1452.11 1140.94 1451.82 1142.84 1452.27 1144.75 1452.73 1146.41 1453.89 1147.49 1455.53 1148.56 1457.16 1148.98 1459.15 1148.64 1461.08 1148.31 1463.01 1147.25 1464.74 1145.69 1465.92 1144.7 1466.57 1143.8 1468.48 1143.38 1470.78 1142.85 1473.82 1142.98 1476.94 1143.77 1479.92 1144.56 1482.9 1145.99 1485.67 1147.96 1488.05 1148.91 1489.17 1149.52 1490.53 1149.72 1491.99 1149.92 1493.44 1149.69 1494.93 1149.08 1496.26 1148.46 1497.59 1147.48 1498.72 1146.24 1499.51 1145 1500.3 1143.56 1500.73 1142.09 1500.73L1142.11 1500.77zM1149.27 1558.06C1148.2 1558.05 1147.13 1557.82 1146.16 1557.37 1145.18 1556.93 1144.3 1556.29 1143.58 1555.49 1139.84 1551.31 1137.22 1546.26 1135.97 1540.79 1134.72 1535.32 1134.89 1529.63 1136.45 1524.24 1139.01 1515.77 1145.11 1509.71 1152.43 1508.44 1153.43 1508.25 1154.46 1508.26 1155.47 1508.47 1156.47 1508.68 1157.42 1509.09 1158.26 1509.67 1159.1 1510.25 1159.82 1510.99 1160.37 1511.85 1160.92 1512.71 1161.29 1513.68 1161.47 1514.68 1161.65 1515.69 1161.62 1516.72 1161.39 1517.72 1161.16 1518.72 1160.74 1519.66 1160.14 1520.49 1159.55 1521.32 1158.79 1522.03 1157.92 1522.56 1157.05 1523.1 1156.08 1523.46 1155.07 1523.61 1153.65 1523.87 1151.99 1526.04 1151.22 1528.67 1150.43 1531.51 1150.35 1534.49 1151.01 1537.36 1151.66 1540.23 1153.02 1542.89 1154.97 1545.1 1155.96 1546.21 1156.61 1547.57 1156.84 1549.04 1157.07 1550.5 1156.87 1552 1156.27 1553.35 1155.67 1554.71 1154.7 1555.86 1153.46 1556.67 1152.22 1557.49 1150.78 1557.93 1149.3 1557.94L1149.27 1558.06zM1100.62 1613.98C1099.09 1613.98 1097.59 1613.53 1096.32 1612.67 1095.04 1611.81 1094.06 1610.59 1093.48 1609.17 1089.98 1600.49 1089.94 1591.34 1093.37 1584.05 1097.86 1574.5 1108.1 1569.01 1117.76 1570.98 1118.75 1571.19 1119.69 1571.58 1120.53 1572.15 1121.36 1572.72 1122.08 1573.45 1122.64 1574.29 1123.2 1575.14 1123.58 1576.08 1123.77 1577.08 1123.96 1578.07 1123.96 1579.09 1123.75 1580.08 1123.55 1581.07 1123.15 1582.02 1122.58 1582.85 1122.01 1583.69 1121.29 1584.41 1120.44 1584.97 1119.6 1585.52 1118.65 1585.91 1117.66 1586.1 1116.66 1586.29 1115.64 1586.28 1114.65 1586.08 1112.08 1585.54 1108.76 1587.63 1107.36 1590.61 1105.75 1594.02 1105.92 1598.7 1107.82 1603.45 1108.2 1604.38 1108.39 1605.39 1108.38 1606.4 1108.37 1607.41 1108.16 1608.41 1107.77 1609.34 1107.37 1610.27 1106.8 1611.12 1106.07 1611.82 1105.35 1612.53 1104.5 1613.09 1103.56 1613.47 1102.62 1613.83 1101.62 1614 1100.62 1613.98zM831.722 1405.38C830.021 1405.39 828.365 1404.83 827.014 1403.8 825.662 1402.76 824.691 1401.31 824.251 1399.67 823.811 1398.02 823.928 1396.28 824.583 1394.71 825.238 1393.14 826.394 1391.83 827.871 1390.99 838.307 1385.03 866.958 1381.08 880.86 1385.34 881.844 1385.62 882.761 1386.1 883.559 1386.74 884.357 1387.38 885.019 1388.17 885.507 1389.07 885.995 1389.97 886.298 1390.96 886.4 1391.98 886.502 1393 886.399 1394.03 886.099 1395 885.799 1395.98 885.307 1396.89 884.651 1397.68 883.996 1398.46 883.191 1399.11 882.282 1399.58 881.374 1400.05 880.381 1400.34 879.361 1400.42 878.341 1400.5 877.314 1400.38 876.342 1400.06 866.997 1397.2 842.607 1400.31 835.496 1404.36 834.346 1405.02 833.046 1405.37 831.722 1405.38zM1408.19 688.13C1399.7 688.092 1391.4 685.547 1384.34 680.813 1383.39 680.321 1382.54 679.635 1381.87 678.798 1381.19 677.96 1380.7 676.991 1380.42 675.952 1380.14 674.913 1380.09 673.827 1380.25 672.764 1380.42 671.702 1380.81 670.686 1381.39 669.782 1381.98 668.879 1382.74 668.108 1383.64 667.518 1384.54 666.929 1385.56 666.535 1386.62 666.361 1387.68 666.187 1388.77 666.238 1389.81 666.509 1390.85 666.781 1391.82 667.268 1392.66 667.938 1396.09 670.256 1399.98 671.789 1404.06 672.428 1408.15 673.067 1412.33 672.796 1416.29 671.635 1453.93 661.584 1490.45 591.112 1492.03 588.121 1501.6 569.444 1503.43 547.429 1496.25 536.916 1492.4 531.178 1485.8 528.842 1476.27 529.792 1475.25 529.905 1474.23 529.816 1473.25 529.53 1472.27 529.244 1471.36 528.767 1470.57 528.126 1469.77 527.485 1469.12 526.693 1468.63 525.796 1468.15 524.9 1467.85 523.916 1467.75 522.902 1467.65 521.887 1467.75 520.863 1468.04 519.889 1468.34 518.914 1468.83 518.008 1469.48 517.223 1470.13 516.439 1470.93 515.791 1471.83 515.317 1472.74 514.844 1473.72 514.554 1474.74 514.465 1493.99 512.553 1503.98 520.883 1508.99 528.239 1521.17 546.12 1515.84 575.451 1505.74 595.142 1501.57 603.281 1463.74 674.921 1420.31 686.512 1416.36 687.58 1412.29 688.124 1408.19 688.13z"
                class="color3A3A3A svgShape"></path>
            <path fill="#3a3a3a"
                d="M1468.53 525.595C1468.53 525.595 1484.56 572.229 1502.44 576.799C1502.45 576.799 1516.52 519.176 1468.53 525.595Z"
                class="color3A3A3A svgShape"></path>
            <path fill="#3a3a3a"
                d="M1502.45 584.502C1501.81 584.503 1501.17 584.421 1500.55 584.258 1479.69 578.943 1464.16 536.545 1461.26 528.111 1460.89 527.034 1460.76 525.887 1460.89 524.755 1461.01 523.622 1461.39 522.531 1461.99 521.561 1462.58 520.591 1463.39 519.766 1464.35 519.145 1465.3 518.524 1466.38 518.123 1467.51 517.97 1482.7 515.929 1494.37 519.331 1502.17 528.047 1517.57 545.119 1510.72 575.247 1509.87 578.623 1509.46 580.299 1508.5 581.79 1507.15 582.856 1505.79 583.922 1504.11 584.502 1502.39 584.502H1502.45zM1479.64 533.053C1484.26 544.08 1490.57 556.159 1496.57 563.309 1497.05 554.721 1496.12 544.311 1490.73 538.329 1487.8 535.275 1483.86 533.399 1479.64 533.053zM1385.09 643.768C1385.09 643.768 1372.71 682.482 1404.66 680.416 1436.61 678.349 1448.19 658.953 1448.19 658.953 1448.19 658.953 1431.51 638.415 1420.09 642.985 1405.63 648.761 1403.36 647.978 1385.09 643.768z"
                class="color3A3A3A svgShape"></path>
            <path fill="#3a3a3a"
                d="M1402.35 688.194C1390.67 688.194 1384.27 683.252 1380.89 678.926C1370.48 665.602 1377.04 643.857 1377.8 641.418C1378.39 639.583 1379.65 638.037 1381.33 637.086C1383.01 636.136 1384.98 635.849 1386.86 636.283L1388.32 636.617C1404.77 640.468 1405.41 640.571 1417.23 635.847C1433.12 629.506 1450.79 649.967 1454.16 654.113C1455.16 655.337 1455.75 656.836 1455.87 658.409C1455.98 659.981 1455.61 661.551 1454.8 662.906C1454.25 663.843 1440.79 685.832 1405.2 688.13C1404.22 688.168 1403.27 688.194 1402.35 688.194ZM1390.97 652.984C1390.15 658.555 1390.02 665.602 1393.03 669.466C1393.78 670.403 1396.01 673.252 1404.2 672.726C1422.44 671.545 1432.99 664.023 1437.99 659.171C1432.04 653.305 1425.42 649.133 1422.96 650.185C1409.16 655.641 1404.09 655.82 1390.97 652.984Z"
                class="color3A3A3A svgShape"></path>
            <path fill="#699EF5"
                d="M416.528 1196.66C415.136 1196.65 413.771 1196.28 412.574 1195.57C411.472 1194.91 410.552 1193.98 409.9 1192.87C409.247 1191.76 408.883 1190.51 408.839 1189.23L405.848 1101.87C405.797 1100.39 406.178 1098.91 406.946 1097.64C407.714 1096.36 408.835 1095.34 410.174 1094.69L1031.84 791.668C1032.87 791.167 1033.99 790.9 1035.13 790.885L1213.56 788.908H1213.65C1215.38 788.91 1217.07 789.499 1218.43 790.58C1219.79 791.662 1220.74 793.171 1221.14 794.863C1221.53 796.556 1221.34 798.332 1220.6 799.902C1219.86 801.473 1218.6 802.747 1217.05 803.516L419.929 1195.86C418.874 1196.39 417.708 1196.66 416.528 1196.66ZM421.418 1106.35L423.819 1176.79L1179.71 804.684L1036.99 806.276L421.418 1106.35Z"
                class="color699EF5 svgShape"></path>
            <path fill="#699EF5" d="M505.51 1143.44L468.99 1161.41L485.036 1067.49L521.555 1050.05L505.51 1143.44Z"
                class="color699EF5 svgShape"></path>
            <path fill="#699EF5"
                d="M468.99 1169.11C467.871 1169.11 466.765 1168.87 465.75 1168.39 464.735 1167.92 463.835 1167.23 463.113 1166.38 462.391 1165.52 461.864 1164.52 461.569 1163.44 461.273 1162.36 461.217 1161.23 461.404 1160.13L477.449 1066.2C477.658 1064.99 478.155 1063.84 478.899 1062.86 479.642 1061.87 480.611 1061.08 481.724 1060.55L518.243 1043.12C519.517 1042.52 520.933 1042.27 522.336 1042.42 523.739 1042.56 525.075 1043.09 526.2 1043.94 527.324 1044.79 528.193 1045.93 528.712 1047.25 529.231 1048.56 529.379 1049.99 529.142 1051.38L513.096 1144.76C512.889 1145.96 512.402 1147.09 511.675 1148.06 510.948 1149.03 510.001 1149.82 508.911 1150.36L472.392 1168.33C471.333 1168.85 470.169 1169.11 468.99 1169.11zM491.967 1072.72L479.131 1147.84 498.578 1138.27 511.414 1063.42 491.967 1072.72zM693.281 1050.99L656.761 1068.97 672.807 975.049 709.326 957.617 693.281 1050.99z"
                class="color699EF5 svgShape"></path>
            <path fill="#699EF5"
                d="M656.762 1076.68C655.643 1076.67 654.537 1076.43 653.522 1075.96 652.507 1075.49 651.607 1074.8 650.885 1073.94 650.163 1073.09 649.636 1072.08 649.34 1071.01 649.045 1069.93 648.989 1068.79 649.176 1067.69L665.221 973.766C665.428 972.549 665.924 971.399 666.668 970.414 667.412 969.429 668.382 968.637 669.496 968.105L706.041 950.673C707.315 950.065 708.732 949.818 710.138 949.96 711.543 950.102 712.882 950.628 714.008 951.48 715.134 952.332 716.005 953.478 716.524 954.791 717.043 956.104 717.191 957.535 716.952 958.927L700.906 1052.3C700.701 1053.5 700.215 1054.63 699.488 1055.61 698.761 1056.58 697.813 1057.37 696.722 1057.91L660.202 1075.88C659.132 1076.41 657.955 1076.68 656.762 1076.68zM679.726 980.274L666.89 1055.39 686.337 1045.82 699.174 970.981 679.726 980.274zM859.372 969.659L822.853 987.63 838.898 893.706 875.418 876.287 859.372 969.659z"
                class="color699EF5 svgShape"></path>
            <path fill="#699EF5"
                d="M822.853 995.332C821.733 995.331 820.628 995.086 819.613 994.614 818.598 994.142 817.698 993.454 816.976 992.599 816.254 991.743 815.726 990.741 815.431 989.661 815.136 988.581 815.08 987.45 815.266 986.346L831.312 892.422C831.521 891.207 832.018 890.06 832.761 889.078 833.505 888.095 834.474 887.305 835.586 886.774L872.093 869.342C873.368 868.733 874.785 868.487 876.19 868.629 877.595 868.771 878.934 869.297 880.06 870.149 881.187 871.001 882.057 872.147 882.576 873.46 883.095 874.773 883.243 876.204 883.004 877.596L866.959 970.981C866.752 972.178 866.265 973.309 865.538 974.282 864.81 975.254 863.863 976.041 862.774 976.578L826.254 994.549C825.195 995.067 824.032 995.335 822.853 995.332zM845.817 898.994L832.981 974.113 852.441 964.46 865.277 889.611 845.817 898.994zM1036.58 880.009L1000.06 897.98 1016.1 804.055 1052.62 796.443 1036.58 880.009z"
                class="color699EF5 svgShape"></path>
            <path fill="#699EF5"
                d="M1000.06 905.683C998.94 905.681 997.834 905.436 996.819 904.964 995.804 904.492 994.904 903.805 994.182 902.949 993.46 902.094 992.933 901.091 992.638 900.012 992.343 898.932 992.286 897.801 992.473 896.697L1008.52 802.721C1008.78 801.197 1009.49 799.787 1010.57 798.675 1011.64 797.562 1013.03 796.798 1014.54 796.483L1051.06 788.871C1052.3 788.614 1053.58 788.667 1054.8 789.025 1056.01 789.384 1057.12 790.036 1058.02 790.924 1058.93 791.813 1059.6 792.91 1059.97 794.12 1060.35 795.329 1060.42 796.612 1060.19 797.856L1044.14 881.422C1043.92 882.59 1043.42 883.691 1042.7 884.638 1041.98 885.585 1041.05 886.351 1039.98 886.877L1003.46 904.848C1002.41 905.384 1001.24 905.669 1000.06 905.683zM1022.82 810.526L1010.26 884.413 1029.8 874.785 1042.95 806.341 1022.82 810.526zM1188.19 610.894C1181 610.894 1173.95 608.88 1167.84 605.079 1161.74 601.279 1156.82 595.845 1153.64 589.392 1150.46 582.939 1149.16 575.725 1149.87 568.568 1150.58 561.411 1153.29 554.597 1157.67 548.897 1162.06 543.197 1167.95 538.84 1174.69 536.319 1181.43 533.797 1188.73 533.213 1195.79 534.631 1202.84 536.05 1209.35 539.415 1214.59 544.345 1219.82 549.275 1223.57 555.573 1225.42 562.526 1226.93 568.227 1227.11 574.198 1225.94 579.98 1224.78 585.761 1222.3 591.198 1218.71 595.872 1215.11 600.545 1210.49 604.33 1205.2 606.935 1199.91 609.539 1194.09 610.894 1188.19 610.894zM1188.19 549.279C1186.2 549.276 1184.22 549.535 1182.3 550.049 1177.88 551.215 1173.91 553.665 1170.88 557.089 1167.86 560.513 1165.91 564.757 1165.3 569.285 1164.68 573.812 1165.43 578.421 1167.43 582.527 1169.44 586.633 1172.61 590.052 1176.56 592.353 1180.51 594.653 1185.05 595.732 1189.61 595.452 1194.17 595.171 1198.55 593.545 1202.18 590.779 1205.82 588.012 1208.56 584.23 1210.04 579.909 1211.53 575.588 1211.7 570.924 1210.54 566.505 1209.25 561.557 1206.35 557.176 1202.31 554.049 1198.26 550.923 1193.29 549.227 1188.18 549.227L1188.19 549.279z"
                class="color699EF5 svgShape"></path>
            <path fill="#699EF5"
                d="M1051.71 619.39C1049.84 619.4 1048.02 618.724 1046.6 617.488C1045.19 616.251 1044.28 614.541 1044.03 612.678C1043.79 610.815 1044.24 608.928 1045.29 607.373C1046.35 605.817 1047.93 604.699 1049.75 604.23L1155.38 576.363C1156.37 576.078 1157.4 575.993 1158.42 576.114C1159.44 576.234 1160.42 576.557 1161.32 577.063C1162.21 577.57 1162.99 578.249 1163.62 579.062C1164.24 579.875 1164.7 580.806 1164.96 581.798C1165.23 582.79 1165.29 583.825 1165.14 584.841C1165 585.858 1164.65 586.835 1164.13 587.716C1163.6 588.596 1162.9 589.363 1162.07 589.971C1161.25 590.578 1160.31 591.014 1159.31 591.253L1053.68 619.159C1053.04 619.323 1052.38 619.401 1051.71 619.39Z"
                class="color699EF5 svgShape"></path>
            <path fill="#699EF5"
                d="M1057.31 640.609C1055.61 640.609 1053.96 640.046 1052.61 639.008 1051.26 637.97 1050.3 636.515 1049.86 634.871L1044.27 613.64C1043.8 611.683 1044.12 609.621 1045.15 607.894 1046.18 606.167 1047.85 604.913 1049.79 604.4 1051.74 603.887 1053.81 604.156 1055.56 605.148 1057.31 606.141 1058.6 607.779 1059.16 609.712L1064.77 630.943C1065.29 632.918 1065 635.018 1063.98 636.783 1062.95 638.547 1061.26 639.831 1059.29 640.352 1058.64 640.525 1057.98 640.612 1057.31 640.609zM1086.38 642.933C1084.68 642.933 1083.03 642.37 1081.68 641.332 1080.34 640.294 1079.37 638.839 1078.94 637.195L1072.19 611.625C1071.72 609.668 1072.03 607.606 1073.07 605.88 1074.1 604.153 1075.77 602.899 1077.71 602.386 1079.66 601.872 1081.73 602.141 1083.48 603.134 1085.23 604.126 1086.52 605.764 1087.08 607.697L1093.83 633.28C1094.35 635.255 1094.06 637.355 1093.04 639.12 1092.01 640.884 1090.32 642.168 1088.35 642.689 1087.71 642.858 1087.05 642.94 1086.38 642.933z"
                class="color699EF5 svgShape"></path>
            <path fill="#3a3a3a"
                d="M1258.93 465.597C1257.46 465.596 1256.03 465.175 1254.79 464.385C1253.55 463.595 1252.57 462.468 1251.95 461.137C1251.33 459.806 1251.11 458.326 1251.3 456.871C1251.5 455.417 1252.11 454.049 1253.05 452.927C1255.5 449.971 1257.24 446.495 1258.14 442.765C1259.05 439.035 1259.09 435.149 1258.26 431.4C1257.81 429.409 1258.16 427.318 1259.25 425.587C1260.33 423.856 1262.06 422.627 1264.05 422.171C1266.05 421.715 1268.14 422.069 1269.87 423.154C1271.6 424.24 1272.83 425.969 1273.28 427.96C1274.62 434.038 1274.55 440.338 1273.08 446.385C1271.62 452.432 1268.8 458.067 1264.84 462.863C1264.11 463.722 1263.21 464.412 1262.19 464.884C1261.17 465.356 1260.06 465.6 1258.93 465.597Z"
                class="color3A3A3A svgShape"></path>
            <g opacity=".2">
                <path fill="#699EF5"
                    d="M821.601 586.145C832.722 578.186 838.139 566.706 833.699 560.502C829.26 554.299 816.646 555.722 805.525 563.681C794.404 571.64 788.988 583.12 793.427 589.324C797.866 595.527 810.481 594.104 821.601 586.145Z"
                    class="color699EF5 svgShape"></path>
                <path fill="#699EF5"
                    d="M802.673 600.933C796.14 600.933 790.569 598.584 787.167 593.835C780.03 583.861 785.999 568.162 801.043 557.443C816.087 546.725 832.826 546.07 839.963 556.057C847.1 566.031 841.144 581.73 826.087 592.448C818.205 598.083 809.862 600.933 802.673 600.933ZM824.585 564.362C821.492 564.362 816.203 565.53 810.003 569.972C800.594 576.698 798.989 583.886 799.734 584.875C800.478 585.863 807.757 586.646 817.166 579.92C826.575 573.194 828.179 566.005 827.435 565.017C827.204 564.683 826.19 564.362 824.585 564.362Z"
                    class="color699EF5 svgShape"></path>
            </g>
        </svg></g>
</svg>