<svg width="264" height="264" viewBox="0 0 264 264" fill="none" xmlns="http://www.w3.org/2000/svg">
    <path
        d="M218.947 146.817C224.282 147.726 229.396 144.135 229.768 138.736C230.78 124.058 228.475 109.295 222.973 95.5597C217.471 81.824 208.947 69.553 198.082 59.632C194.086 55.9824 187.907 56.9154 184.675 61.2566V61.2566C181.442 65.5978 182.392 71.6968 186.297 75.4452C194.308 83.1364 200.621 92.4695 204.778 102.848C208.936 113.226 210.811 124.337 210.325 135.432C210.088 140.839 213.611 145.907 218.947 146.817V146.817Z"
        fill="#fff" />
    <path
        d="M146.29 219.035C147.167 224.375 152.227 228.043 157.454 226.637C171.662 222.815 184.87 215.831 196.067 206.158C207.264 196.485 216.092 184.431 221.936 170.929C224.086 165.962 221.193 160.423 216.036 158.78V158.78C210.879 157.137 205.422 160.02 203.148 164.932C198.483 175.01 191.713 184.018 183.253 191.327C174.793 198.635 164.898 204.025 154.249 207.177C149.059 208.713 145.414 213.694 146.29 219.035V219.035Z"
        fill="#fff" />
    <path
        d="M53.7782 172.75C48.9781 175.251 47.074 181.202 50.0414 185.729C58.1078 198.033 68.8665 208.401 81.5521 216.018C94.2376 223.635 108.445 228.258 123.097 229.595C128.487 230.087 132.846 225.609 132.797 220.196V220.196C132.748 214.784 128.304 210.5 122.928 209.873C111.898 208.588 101.226 204.969 91.6417 199.214C82.0568 193.459 73.847 185.741 67.5281 176.609C64.4485 172.158 58.5782 170.25 53.7782 172.75V172.75Z"
        fill="#fff" />
    <path
        d="M69.6332 69.6332C65.806 65.806 59.5574 65.7779 56.1314 69.968C46.8185 81.3582 40.1619 94.7346 36.7077 109.122C33.2535 123.51 33.1118 138.451 36.2387 152.827C37.3889 158.116 42.9693 160.928 48.1168 159.255V159.255C53.2643 157.583 56.0161 152.057 54.9984 146.742C52.9102 135.834 53.1563 124.569 55.7662 113.698C58.3761 102.827 63.2712 92.6777 70.0836 83.9071C73.4037 79.6327 73.4603 73.4603 69.6332 69.6332V69.6332Z"
        fill="#fff" />
    <path
        d="M171.137 52.9584C173.538 48.108 171.566 42.1788 166.5 40.2734C152.729 35.0939 137.926 33.0666 123.189 34.3969C108.453 35.7272 94.252 40.3727 81.6311 47.9346C76.9883 50.7164 76.1097 56.9031 79.3411 61.245V61.245C82.5725 65.5868 88.6878 66.4263 93.3986 63.7614C103.065 58.2935 113.817 54.9226 124.951 53.9175C136.086 52.9124 147.268 54.3032 157.757 57.9517C162.869 59.7299 168.735 57.8088 171.137 52.9584V52.9584Z"
        fill="#fff" />
    <path fill-rule="evenodd" clip-rule="evenodd"
        d="M132 196C167.346 196 196 167.346 196 132C196 96.6538 167.346 68 132 68C96.6538 68 68 96.6538 68 132C68 167.346 96.6538 196 132 196ZM132 174C155.196 174 174 155.196 174 132C174 108.804 155.196 90 132 90C108.804 90 90 108.804 90 132C90 155.196 108.804 174 132 174Z"
        fill="#fff" />
    <path
        d="M159.73 13.0906C160.972 7.76588 157.665 2.40363 152.262 1.56434C136.89 -0.823622 121.215 -0.475323 105.964 2.5931C100.604 3.67155 97.5382 9.17541 99.0152 14.4397V14.4397C100.492 19.7041 105.953 22.7283 111.327 21.7209C123.344 19.4682 135.649 19.1948 147.754 20.9114C153.167 21.6792 158.489 18.4154 159.73 13.0906V13.0906Z"
        fill="#fff" />
    <path
        d="M228.481 57.1675C232.801 53.8165 233.613 47.569 229.948 43.5118C219.52 31.9683 207.132 22.3584 193.358 15.1273C188.517 12.5858 182.667 14.926 180.496 19.9439V19.9439C178.324 24.9617 180.657 30.7518 185.464 33.3572C196.213 39.1829 205.938 46.727 214.253 55.6897C217.972 59.698 224.16 60.5185 228.481 57.1675V57.1675Z"
        fill="#fff" />
    <path
        d="M254.1 132C259.568 132 264.039 127.561 263.629 122.109C262.463 106.596 258.564 91.4103 252.112 77.2548C249.845 72.2796 243.788 70.5438 238.997 73.1779V73.1779C234.206 75.8119 232.501 81.8171 234.702 86.8219C239.625 98.0128 242.686 109.934 243.764 122.113C244.245 127.559 248.632 132 254.1 132V132Z"
        fill="#fff" />
    <path
        d="M224.975 211.146C229.138 214.69 235.42 214.209 238.642 209.791C247.81 197.223 254.685 183.132 258.947 168.171C260.446 162.913 256.959 157.666 251.603 156.566V156.566C246.247 155.466 241.057 158.933 239.489 164.171C235.983 175.884 230.587 186.946 223.513 196.917C220.349 201.377 220.811 207.602 224.975 211.146V211.146Z"
        fill="#fff" />
    <path
        d="M152.088 252.436C152.988 257.829 158.101 261.509 163.412 260.208C178.522 256.506 192.859 250.162 205.76 241.469C210.295 238.414 211.01 232.154 207.624 227.862V227.862C204.238 223.569 198.034 222.875 193.459 225.87C183.231 232.567 171.975 237.548 160.14 240.614C154.847 241.985 151.189 247.043 152.088 252.436V252.436Z"
        fill="#fff" />
    <path
        d="M68.2544 236.139C65.3999 240.802 66.8514 246.933 71.7155 249.43C85.5549 256.535 100.543 261.137 115.984 263.025C121.411 263.688 126.054 259.429 126.309 253.967V253.967C126.563 248.506 122.332 243.916 116.914 243.181C104.799 241.537 93.0331 237.924 82.0837 232.485C77.187 230.052 71.1089 231.476 68.2544 236.139V236.139Z"
        fill="#fff" />
    <path
        d="M16.4773 171.534C11.3042 173.304 8.51124 178.951 10.6642 183.977C16.7898 198.277 25.3958 211.382 36.0834 222.686C39.8398 226.659 46.1319 226.341 49.8123 222.297V222.297C53.4926 218.254 53.1613 212.02 49.4578 207.998C41.1767 199.003 34.4208 188.715 29.4583 177.542C27.239 172.545 21.6504 169.763 16.4773 171.534V171.534Z"
        fill="#fff" />
    <path
        d="M18.0539 88.1286C12.9514 86.1641 7.18413 88.6999 5.60742 93.9353C1.12136 108.831 -0.696353 124.404 0.238513 139.932C0.567088 145.39 5.59531 149.186 11.0131 148.449V148.449C16.4309 147.713 20.1796 142.721 19.9233 137.259C19.3502 125.047 20.7771 112.822 24.1475 101.07C25.6548 95.814 23.1564 90.0932 18.0539 88.1286V88.1286Z"
        fill="#fff" />
    <path
        d="M72.091 25.6077C69.4083 20.8434 63.3469 19.1255 58.7971 22.1576C45.8519 30.7847 34.5326 41.6333 25.3638 54.2007C22.1413 58.6177 23.6004 64.7466 28.2465 67.6291V67.6291C32.8925 70.5116 38.9617 69.0507 42.2424 64.6767C49.5783 54.8963 58.4642 46.3798 68.5472 39.4657C73.0565 36.3736 74.7737 30.3719 72.091 25.6077V25.6077Z"
        fill="#fff" />
</svg>