<svg width="264" height="264" viewBox="0 0 264 264" fill="none" xmlns="http://www.w3.org/2000/svg">
<path d="M220.728 147.12C225.08 147.862 229.243 144.935 229.627 140.537C230.963 125.267 228.7 109.857 222.973 95.5597C217.246 81.262 208.244 68.5512 196.737 58.426C193.423 55.5099 188.39 56.2666 185.754 59.8073V59.8073C183.117 63.3481 183.881 68.3284 187.149 71.2968C196.315 79.6239 203.503 89.9442 208.133 101.504C212.764 113.064 214.688 125.493 213.805 137.845C213.491 142.248 216.376 146.379 220.728 147.12V147.12Z" fill="#3434FE"/>
<path d="M146.583 220.818C147.298 225.174 151.421 228.158 155.704 227.09C170.577 223.383 184.412 216.227 196.067 206.158C207.722 196.089 216.81 183.441 222.639 169.264C224.317 165.181 221.964 160.669 217.758 159.329V159.329C213.552 157.988 209.091 160.332 207.348 164.387C202.458 175.765 195.039 185.92 185.616 194.061C176.193 202.202 165.067 208.067 153.1 211.253C148.834 212.389 145.868 216.461 146.583 220.818V220.818Z" fill="#3434FE"/>
<path d="M52.1757 173.585C48.2606 175.625 46.713 180.473 49.0648 184.209C57.2305 197.18 68.3475 208.089 81.5521 216.018C94.7567 223.947 109.611 228.632 124.898 229.742C129.301 230.062 132.853 226.418 132.813 222.003V222.003C132.773 217.589 129.154 214.083 124.757 213.693C112.422 212.6 100.457 208.723 89.7814 202.313C79.1053 195.902 70.06 187.164 63.2969 176.79C60.886 173.092 56.0907 171.545 52.1757 173.585V173.585Z" fill="#3434FE"/>
<path d="M68.3555 68.3555C65.234 65.234 60.1448 65.2143 57.288 68.5798C47.3686 80.2652 40.3033 94.1458 36.7077 109.122C33.1122 124.099 33.1058 139.674 36.6389 154.589C37.6565 158.885 42.1999 161.178 46.3984 159.814V159.814C50.5968 158.45 52.8534 153.945 51.9042 149.633C49.2417 137.539 49.3452 124.963 52.2523 112.854C55.1593 100.746 60.7766 89.493 68.6395 79.9259C71.4424 76.5155 71.477 71.477 68.3555 68.3555V68.3555Z" fill="#3434FE"/>
<path d="M171.938 51.3392C173.897 47.3831 172.288 42.555 168.185 40.9251C153.94 35.2654 138.529 33.0121 123.189 34.3969C107.849 35.7816 93.0907 40.7584 80.0898 48.8776C76.3455 51.2159 75.6267 56.2541 78.2623 59.7954V59.7954C80.8979 63.3368 85.888 64.0335 89.669 61.755C100.276 55.3632 112.224 51.4379 124.626 50.3183C137.029 49.1988 149.487 50.9209 161.067 55.3098C165.195 56.8744 169.98 55.2952 171.938 51.3392V51.3392Z" fill="#3434FE"/>
<path fill-rule="evenodd" clip-rule="evenodd" d="M132 196C167.346 196 196 167.346 196 132C196 96.6538 167.346 68 132 68C96.6538 68 68 96.6538 68 132C68 167.346 96.6538 196 132 196ZM132 180C158.51 180 180 158.51 180 132C180 105.49 158.51 84 132 84C105.49 84 84 105.49 84 132C84 158.51 105.49 180 132 180Z" fill="#3434FF"/>
<path d="M160.534 9.64329C161.332 6.22246 159.208 2.78665 155.752 2.15457C138.107 -1.07327 119.988 -0.670648 102.504 3.33778C99.0798 4.12272 97.11 7.6495 98.0589 11.0315V11.0315C99.0079 14.4135 102.516 16.3683 105.944 15.601C121.359 12.1503 137.307 11.7959 152.86 14.5585C156.319 15.1728 159.737 13.0641 160.534 9.64329V9.64329Z" fill="#3434FF"/>
<path d="M231.278 54.998C234.053 52.8452 234.57 48.8388 232.286 46.1701C220.622 32.5419 206.302 21.4332 190.202 13.524C187.049 11.9752 183.297 13.4716 181.902 16.6952V16.6952C180.507 19.9189 181.998 23.6478 185.143 25.2128C199.285 32.2505 211.889 42.0282 222.222 53.9764C224.519 56.6334 228.502 57.1508 231.278 54.998V54.998Z" fill="#3434FF"/>
<path d="M257.64 132C261.152 132 264.016 129.151 263.847 125.642C262.983 107.725 258.476 90.1707 250.601 74.0537C249.059 70.8976 245.177 69.7803 242.099 71.4725V71.4725C239.021 73.1647 237.914 77.0253 239.44 80.1892C246.301 94.4177 250.268 109.869 251.11 125.643C251.297 129.15 254.127 132 257.64 132V132Z" fill="#3434FF"/>
<path d="M227.67 213.441C230.345 215.718 234.372 215.404 236.518 212.623C247.474 198.42 255.421 182.131 259.872 164.754C260.743 161.352 258.512 157.984 255.071 157.278V157.278C251.63 156.571 248.285 158.793 247.396 162.191C243.397 177.473 236.403 191.81 226.819 204.367C224.688 207.16 224.995 211.164 227.67 213.441V213.441Z" fill="#3434FF"/>
<path d="M152.67 255.928C153.248 259.393 156.53 261.748 159.963 261.004C177.494 257.204 194.067 249.87 208.669 239.452C211.529 237.411 211.992 233.398 209.816 230.641V230.641C207.641 227.883 203.651 227.426 200.781 229.452C187.875 238.561 173.288 245.016 157.867 248.441C154.438 249.203 152.093 252.463 152.67 255.928V255.928Z" fill="#3434FF"/>
<path d="M66.4063 239.158C64.5724 242.154 65.5076 246.084 68.5883 247.771C84.3208 256.388 101.646 261.709 119.503 263.407C123 263.74 125.98 261.012 126.144 257.503V257.503C126.307 253.994 123.593 251.035 120.097 250.684C104.38 249.108 89.1306 244.425 75.2375 236.908C72.1481 235.236 68.2402 236.162 66.4063 239.158V239.158Z" fill="#3434FF"/>
<path d="M13.1282 172.68C9.80476 173.817 8.01802 177.44 9.31408 180.705C15.9327 197.377 25.8809 212.527 38.5497 225.226C41.0305 227.713 45.0651 227.513 47.4295 224.915V224.915C49.7939 222.317 49.5913 218.306 47.1233 215.807C36.0245 204.566 27.2683 191.232 21.3645 176.581C20.0517 173.323 16.4516 171.543 13.1282 172.68V172.68Z" fill="#3434FF"/>
<path d="M14.7505 86.8568C11.4724 85.5946 7.77634 87.2248 6.67357 90.5598C1.04207 107.591 -1.05914 125.592 0.498602 143.462C0.803641 146.962 4.02492 149.399 7.50552 148.926V148.926C10.9861 148.453 13.4063 145.248 13.1192 141.747C11.8283 126.003 13.6778 110.159 18.5598 95.1357C19.6454 91.7951 18.0285 88.1189 14.7505 86.8568V86.8568Z" fill="#3434FF"/>
<path d="M70.3542 22.5232C68.6307 19.4625 64.743 18.3653 61.7688 20.2342C46.5806 29.7781 33.496 42.3186 23.316 57.0881C21.3226 59.9803 22.2537 63.911 25.2385 65.7629V65.7629C28.2233 67.6147 32.1304 66.6851 34.1387 63.8032C43.17 50.8432 54.6868 39.8053 68.0185 31.3322C70.983 29.448 72.0777 25.584 70.3542 22.5232V22.5232Z" fill="#3434FF"/>
</svg>
