<svg xmlns="http://www.w3.org/2000/svg" data-name="Layer 1" viewBox="0 0 2666.67 2000" width="550" height="550">
    <defs>
        <clipPath id="a">
            <path fill="none" d="M0 0h2666.67v2000H0z"></path>
        </clipPath>
    </defs>
    <g clip-path="url(#a)">
        <circle cx="1583.98" cy="974.51" r="901.81" fill="#ead5f5" class="coloread5f5 svgShape"></circle>
        <path fill="#00141f"
            d="M1285 817.26a98.91 98.91 0 0 1-18.82-1.6 5 5 0 1 1 2-9.79 107.07 107.07 0 0 0 42.18-1.59c30-7.29 51.58-26.82 64.16-58.06a5 5 0 1 1 9.27 3.74c-17.32 43-48.43 58.62-71.47 64.13a118.37 118.37 0 0 1-27.32 3.17Z"
            class="color00141f svgShape"></path>
        <path fill="#00202f"
            d="M194.33 563.46C128.94 660.43 64 744.35 0 816.9V2000h231.26c238.08-133.64 497.81-403.93 643.16-946.76V361.46l255.91-60 66.83 288 82.07 80s535.09-228 417.45-504-630.35-64-630.35-64S1058 45.08 1016.45 0h-300.7C577.8 79.71 403.37 253.48 194.33 563.46Z"
            class="color00202f svgShape"></path>
        <path fill="#f1accf" d="M1518.99 1050h591.07v342.04h-591.07z" transform="rotate(-21 1814.61 1221.051)"
            class="colorf1accf svgShape"></path>
        <path fill="#f1accf"
            d="M1612.7 1221.59s130.74-280.2 66-314.59c-59.34-31.5-201.34 260.28-201.34 260.28l126.92 25.08Z"
            class="colorf1accf svgShape"></path>
        <circle cx="2044.47" cy="995.37" r="42.76" fill="#f1accf" transform="rotate(-66 2044.497 995.358)"
            class="colorf1accf svgShape"></circle>
        <circle cx="2075.11" cy="1075.2" r="42.76" fill="#f1accf" transform="rotate(-66 2075.144 1075.192)"
            class="colorf1accf svgShape"></circle>
        <circle cx="2105.76" cy="1155.03" r="42.76" fill="#f1accf" transform="rotate(-66 2105.783 1155.02)"
            class="colorf1accf svgShape"></circle>
        <circle cx="2136.4" cy="1234.86" r="42.76" fill="#f1accf" transform="rotate(-66 2136.43 1234.855)"
            class="colorf1accf svgShape"></circle>
        <path fill="#f193c3"
            d="m1647.07 1468.5 109.74-42.13c.7-98 1.72-281.71-.48-285.37s-2.8-54.32-2.95-79.69l-65.7 25.22Z"
            class="colorf193c3 svgShape"></path>
        <rect width="327.63" height="652.48" x="1702.62" y="818.17" fill="#f4f8f9" rx="44.62"
            class="colorf4f8f9 svgShape"></rect>
        <path fill="#00202f"
            d="M2000.89 1476.57H1732a35.32 35.32 0 0 1-35.27-35.28V847.52a35.31 35.31 0 0 1 35.27-35.27h268.92a35.31 35.31 0 0 1 35.28 35.27v593.77a35.32 35.32 0 0 1-35.31 35.28ZM1732 824.09a23.46 23.46 0 0 0-23.43 23.43v593.77a23.46 23.46 0 0 0 23.43 23.44h268.92a23.47 23.47 0 0 0 23.44-23.44V847.52a23.46 23.46 0 0 0-23.44-23.43Z"
            class="color00202f svgShape"></path>
        <path fill="#8a4fad" d="m472.87 1795.2 124 204.8h613.05l389.99-513.4-122.58-319.32L472.87 1795.2z"
            class="color8a4fad svgShape"></path>
        <path fill="#ae7acb"
            d="m1687.85 1832.15-658.79-260.86-273.17-126.08-224.14-42-126.08 24.49H0V2000h1908a510.41 510.41 0 0 0-220.15-167.85Z"
            class="colorae7acb svgShape"></path>
        <path fill="#f193c3"
            d="M1284.71 832.34s94.56 46.9 73.55 123.26-161.1 22.08-161.1 22.08 40.28-85.81 43.78-91.06 43.77-54.28 43.77-54.28Z"
            class="colorf193c3 svgShape"></path>
        <path fill="#f1accf"
            d="M1242.69 412.08c140.08 185.61 126.08 963.09-213.63 847.52v311.69S776.9 1679.86 405.67 1427.7l84.06-381.7 192.61-465.82S885.47 289.5 896 282.5s651.38 31.5 637.37 31.5-308.19 105.06-308.19 105.06Z"
            class="colorf1accf svgShape"></path>
        <path fill="#f193c3" d="M1029.06 1488.8v-229.2l-129.58-63.04 129.58 292.24z" class="colorf193c3 svgShape">
        </path>
        <path fill="#8a4fad"
            d="M843.58 1788.39q-25.71 0-51-1.44c-123-7-239.28-39.44-345.69-96.4a852.88 852.88 0 0 1-205.12-154.12c-44.85-46-67-79.42-67.88-80.82l8.36-5.49c.22.34 22.68 34.29 67 79.65A843 843 0 0 0 452 1682c165.19 88.3 442.47 160.55 825.32 3.3l3.8 9.25c-151.87 62.34-298.81 93.84-437.54 93.84Z"
            class="color8a4fad svgShape"></path>
        <path fill="#8a4fad" d="M231.58 1459.72h187.5v10h-187.5z" transform="rotate(-7.26 325.298 1464.547)"
            class="color8a4fad svgShape"></path>
        <path fill="#8a4fad" d="M1090.33 1549.3h10v197.53h-10z" transform="rotate(-57.18 1095.341 1648.062)"
            class="color8a4fad svgShape"></path>
        <path fill="#8a4fad" d="M526.48 1640h165.71v10H526.48z" transform="matrix(.4 -.92 .92 .4 -1142.26 1548.82)"
            class="color8a4fad svgShape"></path>
        <path fill="#8a4fad" d="M454.72 1608h153.22v10H454.72z" transform="rotate(-54.03 531.372 1613.03)"
            class="color8a4fad svgShape"></path>
        <path fill="#8a4fad" d="M333.68 1538.32h163.3v10h-163.3z" transform="rotate(-29.59 415.453 1543.516)"
            class="color8a4fad svgShape"></path>
        <path fill="#8a4fad" d="M813.33 1612.31h10v145.38h-10z" transform="rotate(-8.1 800.193 1657.3)"
            class="color8a4fad svgShape"></path>
        <path fill="#8a4fad" d="M894.38 1613.79h10v147.56h-10z" transform="rotate(-19.77 899.31 1687.465)"
            class="color8a4fad svgShape"></path>
        <path fill="#8a4fad" d="M0 1427.7V2000h262.29c-178.23-211.24-204.7-471.48-207.91-572.3Z"
            class="color8a4fad svgShape"></path>
        <path fill="#e775af"
            d="M1615.39 1003.12V893.36h109.75v-24.12h-133.88v133.88h24.13zM2007.72 893.36h109.76v109.76h24.12V869.24h-133.88v24.12zM2117.48 1285.7v109.75h-109.76v24.13h133.88V1285.7h-24.12zM1725.14 1395.45h-109.75V1285.7h-24.13v133.88h133.88v-24.13z"
            class="colore775af svgShape"></path>
        <path fill="#ffffff"
            d="M1593.3 694.84h9.79l18.35 50.81h.17l19.06-50.81h9.26l-24.61 62.45h-7.94ZM1656.54 739.3a10.52 10.52 0 0 0 1.19 5 12.45 12.45 0 0 0 3.14 3.84 14.47 14.47 0 0 0 4.49 2.47 16.1 16.1 0 0 0 5.3.88 11.83 11.83 0 0 0 6.44-1.72 20.66 20.66 0 0 0 5-4.54l6 4.59q-6.61 8.55-18.52 8.55a23.1 23.1 0 0 1-8.95-1.67 19.59 19.59 0 0 1-6.8-4.63 20.47 20.47 0 0 1-4.27-7 24.41 24.41 0 0 1-1.5-8.69 22.82 22.82 0 0 1 1.63-8.69 21.23 21.23 0 0 1 4.5-7 20.59 20.59 0 0 1 6.83-4.63 22 22 0 0 1 8.65-1.68 20.7 20.7 0 0 1 9.39 1.94 18.66 18.66 0 0 1 6.31 5.08 20.16 20.16 0 0 1 3.57 7 29.23 29.23 0 0 1 1.1 8v2.82Zm25-6.35a16.41 16.41 0 0 0-.83-4.85 10.7 10.7 0 0 0-2.25-3.84 10.38 10.38 0 0 0-3.75-2.56 13.68 13.68 0 0 0-5.25-.92 12.69 12.69 0 0 0-5.34 1.1 13.1 13.1 0 0 0-4.1 2.86 13.31 13.31 0 0 0-2.6 3.93 10.77 10.77 0 0 0-.93 4.28ZM1699.59 715.48h7.94v6.44h.18a11.22 11.22 0 0 1 2.11-3 14.26 14.26 0 0 1 3-2.34 15.9 15.9 0 0 1 3.57-1.54 13.72 13.72 0 0 1 3.88-.58 11.23 11.23 0 0 1 3.53.53l-.35 8.56c-.65-.18-1.3-.32-1.94-.44a10.69 10.69 0 0 0-1.94-.18q-5.83 0-8.91 3.27t-3.09 10.14v21h-7.94ZM1731 700.49a5.87 5.87 0 1 1 1.72 4.1 5.61 5.61 0 0 1-1.72-4.1Zm1.85 15h7.94v41.81h-7.94ZM1756.48 722.36h-9v-6.88h9v-9.35q0-8.37 3.22-12.48t11.07-4.1c.89 0 1.81 0 2.78.09a15.76 15.76 0 0 1 3.13.53l-.88 7.05a11.05 11.05 0 0 0-2.2-.61 13.85 13.85 0 0 0-2.3-.18 8 8 0 0 0-3.53.66 4.94 4.94 0 0 0-2.07 1.9 7.5 7.5 0 0 0-1 3 30.73 30.73 0 0 0-.22 3.93v9.61h9.52v6.88h-9.53v34.93h-7.94ZM1781.53 700.49a5.87 5.87 0 1 1 1.72 4.1 5.61 5.61 0 0 1-1.72-4.1Zm1.86 15h7.94v41.81h-7.94ZM1833.84 726.6a16.74 16.74 0 0 0-4.63-3.49 13 13 0 0 0-5.78-1.19 12.85 12.85 0 0 0-5.69 1.19 11.57 11.57 0 0 0-4 3.27 14.47 14.47 0 0 0-2.47 4.76 18.66 18.66 0 0 0-.84 5.6 15.55 15.55 0 0 0 1 5.51 14.08 14.08 0 0 0 2.73 4.55 12.58 12.58 0 0 0 4.24 3 13.35 13.35 0 0 0 5.55 1.1 12.64 12.64 0 0 0 5.74-1.19 14.54 14.54 0 0 0 4.41-3.48l5.64 5.64a17.68 17.68 0 0 1-7.19 4.94 25.06 25.06 0 0 1-8.68 1.5 23.89 23.89 0 0 1-8.87-1.59 20.29 20.29 0 0 1-6.92-4.45 19.67 19.67 0 0 1-4.5-6.88 23.89 23.89 0 0 1-1.59-8.87 24.16 24.16 0 0 1 1.59-8.9 19.89 19.89 0 0 1 11.33-11.52 23.75 23.75 0 0 1 9-1.63 24.12 24.12 0 0 1 8.77 1.63 19.33 19.33 0 0 1 7.28 5ZM1846.63 720.6a22.13 22.13 0 0 1 7.76-4.63 26.54 26.54 0 0 1 8.82-1.55 24.34 24.34 0 0 1 7.9 1.15 15.42 15.42 0 0 1 5.42 3.09 12.15 12.15 0 0 1 3.14 4.45 14 14 0 0 1 1 5.25v21.35c0 1.47 0 2.82.09 4.06s.15 2.41.26 3.52h-7q-.27-3.16-.27-6.35h-.17a15.27 15.27 0 0 1-6.27 5.74 19.83 19.83 0 0 1-8.38 1.67 19.14 19.14 0 0 1-5.55-.79 13.46 13.46 0 0 1-4.63-2.38 11.39 11.39 0 0 1-3.14-3.93 13.62 13.62 0 0 1 .66-12.22 13.84 13.84 0 0 1 4.94-4.45 23.78 23.78 0 0 1 7.33-2.47 50.71 50.71 0 0 1 9-.75h5.82v-1.76a8.77 8.77 0 0 0-.62-3.18 8.66 8.66 0 0 0-1.85-2.87 8.94 8.94 0 0 0-3.09-2 11.9 11.9 0 0 0-4.41-.74 16 16 0 0 0-4 .44 17.4 17.4 0 0 0-3.13 1.1 14 14 0 0 0-2.56 1.54l-2.21 1.68Zm22.37 16.58a57.18 57.18 0 0 0-5.78.31 22.72 22.72 0 0 0-5.38 1.19 10.37 10.37 0 0 0-4 2.47 5.58 5.58 0 0 0-1.54 4.06c0 2.41.8 4.14 2.42 5.2a11.87 11.87 0 0 0 6.57 1.59 12.82 12.82 0 0 0 5.56-1.1 10.43 10.43 0 0 0 3.7-2.87 11 11 0 0 0 2-3.92 15.6 15.6 0 0 0 .62-4.28v-2.65ZM1914.64 722.36h-11.38v19c0 1.17 0 2.34.09 3.48a9.22 9.22 0 0 0 .66 3.09 4.91 4.91 0 0 0 1.77 2.2 6 6 0 0 0 3.48.84 17.37 17.37 0 0 0 2.91-.26 8.59 8.59 0 0 0 2.74-1v7.23a10.35 10.35 0 0 1-3.66 1.1 26.88 26.88 0 0 1-3.49.31 15.86 15.86 0 0 1-7.1-1.28 8.65 8.65 0 0 1-3.7-3.3 10.71 10.71 0 0 1-1.42-4.55c-.14-1.67-.22-3.36-.22-5.07v-21.79h-9.17v-6.88h9.17v-11.73h7.94v11.73h11.38ZM1923.64 700.49a5.87 5.87 0 1 1 1.72 4.1 5.57 5.57 0 0 1-1.72-4.1Zm1.85 15h7.94v41.81h-7.94ZM1944 736.39a21.42 21.42 0 0 1 1.72-8.56 22.43 22.43 0 0 1 4.72-7 22.46 22.46 0 0 1 31.58 0 22.43 22.43 0 0 1 4.72 7 21.25 21.25 0 0 1 1.72 8.56A21.74 21.74 0 0 1 1982 752a22.62 22.62 0 0 1-31.58 0 21.74 21.74 0 0 1-6.44-15.57Zm8.47 0a17 17 0 0 0 1 5.86 13.14 13.14 0 0 0 2.74 4.59 12.41 12.41 0 0 0 4.32 3 15.47 15.47 0 0 0 11.46 0 12.54 12.54 0 0 0 4.33-3 13.28 13.28 0 0 0 2.73-4.59 18.22 18.22 0 0 0 0-11.73 13.32 13.32 0 0 0-2.73-4.58 12.54 12.54 0 0 0-4.33-3 15.34 15.34 0 0 0-11.46 0 12.41 12.41 0 0 0-4.32 3 13.19 13.19 0 0 0-2.74 4.58 17.13 17.13 0 0 0-.99 5.87ZM1998.44 715.48h7.94v6.44h.17a11.72 11.72 0 0 1 5.21-5.42 17.24 17.24 0 0 1 8.55-2.08 18.08 18.08 0 0 1 5.78.93 13 13 0 0 1 4.85 2.87 13.75 13.75 0 0 1 3.31 5 19.14 19.14 0 0 1 1.24 7.19v26.9h-7.94V732.6a13.92 13.92 0 0 0-.8-5 9.12 9.12 0 0 0-2.11-3.35 8 8 0 0 0-3.05-1.85 11.27 11.27 0 0 0-3.57-.58 12.94 12.94 0 0 0-4.59.8 9.63 9.63 0 0 0-3.7 2.51 11.87 11.87 0 0 0-2.47 4.37 19.78 19.78 0 0 0-.88 6.26v21.52h-7.94ZM2078.27 757.82a5.87 5.87 0 1 1 4.1-1.72 5.57 5.57 0 0 1-4.1 1.72ZM2102.79 757.82a5.87 5.87 0 1 1 4.1-1.72 5.57 5.57 0 0 1-4.1 1.72ZM2127.31 757.82a5.87 5.87 0 1 1 4.1-1.72 5.58 5.58 0 0 1-4.1 1.72Z"
            class="colorfff svgShape"></path>
        <path fill="#00202f"
            d="M1647.07 177.46c-80.74-20-514.74-48-551.74-32s-317 80-317 80l-169 308s-315 577.89-327 611c-7.68 21.12-168.06 112.47-282.33 175.38v412c229.84-24.66 584-154 884-656.67l70-281.74 75-41.88s263.27-66.12 352.27-378.12c0 0 206.86 24 209.93 0s136.6-175.97 55.87-195.97ZM-114.65 672.37c-17.74 0-25.87-4.23-26.57-4.61l4.81-8.77-2.41 4.38 2.36-4.41c.34.18 35.32 17.23 125.59-27.36 83.58-41.28 232.62-145.21 468-405.94l7.42 6.7C359.26 349 262.16 444.44 175.91 516.09 106.76 573.55 44.33 616-9.62 642.13c-50.38 24.46-84.29 30.24-105.03 30.24Z"
            class="color00202f svgShape"></path>
        <path fill="#00141f"
            d="m884 1075.2 15.25-61.35-24.82 4S542.84 1434.93 0 1385.11v346.76c229.84-24.66 584-154 884-656.67Z"
            class="color00141f svgShape"></path>
        <path fill="#f1accf"
            d="M1079.78 855.77s-56.84-185.66-163.34-167.66c-131.24 22.18-131.37 327.51 4 420.9s142.42-79.39 142.42-79.39l49-58.36Z"
            class="colorf1accf svgShape"></path>
        <path fill="#f193c3"
            d="M965.91 1014.79c-9.42 0-19.13-3.42-28.75-10.29C912.68 987 890 947.63 878 901.67c-12.91-49.37-11.2-95.83 4.7-127.48 15.34-30.55 33.4-46.16 53.68-46.4h.47c39.17 0 70.48 58 71.8 60.48a5 5 0 0 1-8.82 4.7c-.3-.56-29.81-55.18-63-55.18h-.37c-16.24.2-31.33 14-44.86 40.89-31.67 63.08 3.58 183.6 51.36 217.68 17.47 12.47 33.85 11.1 48.67-4.07 28.58-29.24 47.73-100.57 36.6-136.28-3.15-10.08-8.37-15.89-15.54-17.29-11.16-2.17-38.19 4.31-93.77 72.1a5 5 0 1 1-7.74-6.34c44.9-54.76 79.7-80.19 103.42-75.57 7.6 1.48 17.79 6.86 23.17 24.12 12.22 39.18-7.82 114.36-39 146.25-10.06 10.32-21.25 15.5-32.86 15.51Z"
            class="colorf193c3 svgShape"></path>
        <path fill="#005280"
            d="M-326 1335.57a5 5 0 0 1-5-4.61 5 5 0 0 1 4.59-5.38c1-.08 100-8.42 242.74-59.29C48 1219.37 245 1125.62 435.24 945.46c47.74-45.2 94.34-89.9 139.41-133.13 227-217.78 423.09-405.86 602.63-503.09 95.46-51.69 180.42-74.46 259.73-69.63a338.52 338.52 0 0 1 123.62 32c40.9 19.21 81.36 47.54 120.24 84.21a5 5 0 0 1-6.87 7.27c-143.11-135-299.44-149.27-492-45-178.35 96.58-374 284.22-600.47 501.5-45.08 43.25-91.69 88-139.46 133.18a1522.87 1522.87 0 0 1-276.41 208 1452.21 1452.21 0 0 1-246.34 115.08c-143.9 51.22-243.94 59.62-244.94 59.7ZM-103.21 943.21c-4.14 0-6.51-.1-7-.12a5 5 0 0 1-4.76-5.24 5 5 0 0 1 5.23-4.75c.9 0 77.62 3.08 200.7-32.89C204.66 867 382.32 792.73 582.9 627.64c78-64.19 149.41-125.52 218.48-184.83 137.06-117.69 255.42-219.33 367.88-293.64C1292.45 67.78 1397 27.8 1498.41 23.36a5 5 0 1 1 .44 10c-216.31 9.47-415.4 180.43-691 417-69.11 59.35-140.57 120.71-218.64 185C500 708.8 407.78 770.68 315.09 819.26c-74.2 38.9-148.87 69.42-221.91 90.72-104.63 30.51-174.72 33.23-196.39 33.23Z"
            class="color005280 svgShape"></path>
        <path fill="#00202f"
            d="M1785.08 1260.17s-18.51-63.5-16.32-146 48.56-73 48.56-73-14-47 26-64.5 95.15 18.28 109.78 117.14 13 183.36 13 183.36l-120-9Z"
            class="color00202f svgShape"></path>
        <path fill="#ae7acb"
            d="m1898 1212.91-12.88-1.13-18.67-4.24-18.67 4.24-12.87 1.13H1784a44.42 44.42 0 0 0-44.41 44.42v35.5h253.75v-35.5a44.42 44.42 0 0 0-44.42-44.42Z"
            class="colorae7acb svgShape"></path>
        <path fill="#f1accf"
            d="m1892.88 1156.06-12.44-6h-28l-12.45 6-5.09 56.85s10.19 13.3 31.54 13.3 31.55-13.3 31.55-13.3Z"
            class="colorf1accf svgShape"></path>
        <path fill="#f193c3"
            d="m1896.53 1196.73-3.21-35.8c-15.77.13-50.14.37-50.79-.07-.34-.22-1.63.28-3.06 1l-1.28 14.26c5.2 5.73 23.33 22.36 58.34 20.61Z"
            class="colorf193c3 svgShape"></path>
        <ellipse cx="1866.43" cy="1105.96" fill="#f1accf" rx="55.59" ry="74.94" class="colorf1accf svgShape"></ellipse>
        <path fill="#f1accf" d="M1817.64 1115.54s-13.58-15.28-27.16-4.25 6.79 42.86 39.46 26.31l-8.06-12.82Z"
            class="colorf1accf svgShape"></path>
        <path fill="#f193c3"
            d="M1861.66 1136.46c-3.67 0-11.56-.56-13.28-5.24-2.25-6.11 6.86-11.19 7.25-11.4l1 1.75c-.08 0-8 4.46-6.33 9 1.41 3.83 10 4.1 13.13 3.88l.14 2c-.15-.04-.86.01-1.91.01ZM1809.93 1135.85c-4.3 0-9.6-1.79-11.92-4.31a3.49 3.49 0 0 1-1-3.64c.85-2.46 4.71-4.22 11.82-5.38l.33 2c-8.48 1.39-10 3.3-10.26 4.06-.06.18-.25.72.59 1.64 2.33 2.52 9.14 4.34 12.79 3.41a2.79 2.79 0 0 0 2.33-3.37c-.53-5.52-8.72-14.1-15.39-14.49-2.72-.16-4.46.36-5.16 1.54-1.25 2.1.7 6.13 1.56 7.51l-1.7 1.06c-.38-.61-3.67-6.08-1.58-9.58 1.11-1.88 3.47-2.73 7-2.52 7.62.44 16.65 9.94 17.26 16.29a4.78 4.78 0 0 1-3.83 5.49 11.4 11.4 0 0 1-2.84.29Z"
            class="colorf193c3 svgShape"></path>
        <path fill="#f1accf" d="M1915.71 1115.54s13.58-15.28 27.16-4.25-6.79 42.86-39.46 26.31l8.06-12.82Z"
            class="colorf1accf svgShape"></path>
        <path fill="#f193c3"
            d="M1921.7 1135.85a11.54 11.54 0 0 1-2.84-.32 4.78 4.78 0 0 1-3.86-5.53c.61-6.35 9.64-15.85 17.26-16.29 3.55-.21 5.89.64 7 2.51 2.08 3.51-1.2 9-1.59 9.59l-1.69-1.06c.85-1.38 2.8-5.41 1.56-7.51-.7-1.18-2.45-1.7-5.17-1.54-6.66.39-14.86 9-15.39 14.49a2.8 2.8 0 0 0 2.34 3.37c3.64.92 10.46-.89 12.78-3.41.84-.92.66-1.46.59-1.64-.26-.76-1.78-2.67-10.25-4.06l.32-2c7.11 1.16 11 2.92 11.83 5.38a3.48 3.48 0 0 1-1 3.64c-2.29 2.59-7.59 4.38-11.89 4.38Z"
            class="colorf193c3 svgShape"></path>
        <path fill="#8a4fad"
            d="M1867.36 1254c-47.43 0-64-37.57-64.14-38l1.84-.79c.15.37 16.23 36.74 62.3 36.74s59.06-36.3 59.18-36.67l1.9.65c-.13.41-13.6 38.07-61.08 38.07Z"
            class="color8a4fad svgShape"></path>
        <path fill="#8a4fad" d="M1810.64 1218.46h24.47v2h-24.47z" transform="rotate(-10.64 1822.681 1219.35)"
            class="color8a4fad svgShape"></path>
        <path fill="#8a4fad" d="M1824.51 1229.06h21.34v2h-21.34z" transform="rotate(-51.46 1835.327 1230.081)"
            class="color8a4fad svgShape"></path>
        <path fill="#8a4fad" d="M1864.81 1228.23h2v21.96h-2z" class="color8a4fad svgShape"></path>
        <path fill="#8a4fad" d="M1846.19 1237.55h20.97v2h-20.97z" transform="rotate(-79.87 1856.802 1238.54)"
            class="color8a4fad svgShape"></path>
        <path fill="#8a4fad" d="M1893.45 1221.05h2v22.83h-2z" transform="rotate(-41.99 1894.298 1232.433)"
            class="color8a4fad svgShape"></path>
        <path fill="#8a4fad" d="M1899.25 1218.22h2v19.58h-2z" transform="rotate(-49.98 1900.344 1228.028)"
            class="color8a4fad svgShape"></path>
        <path fill="#00202f"
            d="M1832.83 1027.46s6.67 89.63 89.08 83.06l10.92-25.56s-19.68-61-25.09-62.5-45.53-7-49.22-7-25.69 12-25.69 12Z"
            class="color00202f svgShape"></path>
        <path fill="#00141f"
            d="M1299.53 549.12s111.8-148.66 137.8-250.66c0 0 28.27 133.1-121.36 339.05.03 0-10.24-57.74-16.44-88.39Z"
            class="color00141f svgShape"></path>
        <path fill="#00202f"
            d="M1755.34 1199.57a411.66 411.66 0 0 1-1.25-58.88c2.27-42.34 11.31-71.83 26.87-87.65 9.71-9.87 22-14.2 36.45-12.87l-.18 2c-13.85-1.28-25.57 2.85-34.85 12.27-36.34 37-25.17 143.84-25.05 144.91Z"
            class="color00202f svgShape"></path>
    </g>
</svg>