<svg xmlns="http://www.w3.org/2000/svg" viewBox="0 0 1280.92 2040.12" width="550" height="550">
    <g data-name="Layer 2">
        <g data-name="Layer 1" fill="none">
            <path fill="#00202F"
                d="M1167.67,653.59c-88-162.5-95-650.83-524.94-653.53-.47,0-.92-.06-1.39-.06l-.88,0-.88,0c-.47,0-.92.06-1.39.06-429.92,2.7-436.93,491-524.95,653.53C25,816.49-52.18,919.18,45.37,1193.18c167.94,471.73-78.06,641.41,235.1,746.61,160.15,53.81,280,54,360,40.73,80,13.32,199.84,13.08,360-40.73,313.16-105.2,67.17-274.88,235.11-746.61C1333.1,919.18,1255.91,816.49,1167.67,653.59Z"
                class="color003752 svgShape"></path>
            <path fill="#AE7ACB"
                d="M1254.08,2040.12H21.25c16.3-69.08,80.71-199.69,186-313.1C311,1614.8,454.92,1519.28,631.45,1516.5c1.39-.1,2.78-.2,4.28-.2a11.85,11.85,0,0,1,1.88.1,13.34,13.34,0,0,1,2-.1c1.39,0,2.79.1,4.28.2,173,2.68,314.49,94.42,418,203.76C1170.78,1835.26,1237.38,1969.75,1254.08,2040.12Z"
                class="colore6dde3 svgShape"></path>
            <path fill="#F1ACCF"
                d="M734.1,1223.73,635.72,1237l-98.38-13.23c-4.32,10.18,0,336,0,336l36.95,2.35-.2,7.83L639,1542.55l58.33,27.33-.21-7.83,37-2.35S738.43,1233.91,734.1,1223.73Z"
                class="colorebae9c svgShape"></path>
            <path fill="#AE7ACB"
                d="M1254.08,2040.12H21.25c15.71-66.5,75.94-189.95,174.34-300.28q5.67-6.4,11.63-12.82c134.89,54.57,444.91,169.07,444.91,169.07l409.71-175.83c6.46,6.86,12.83,13.72,18.89,20.68C1178.54,1851,1238.37,1973.92,1254.08,2040.12Z"
                class="colore975c3 svgShape"></path>
            <path fill="#F1ACCF"
                d="M985.12,687c-3.64-148.92-127-490.07-344.66-382.32C422.78,197,299.44,538.11,295.8,687c-9.23,378.68,182,624.69,341.25,629,.85,0,1.68.21,2.53.21.29,0,.59,0,.88,0s.59,0,.88,0c.85,0,1.68-.16,2.53-.21C803.08,1311.72,994.35,1065.71,985.12,687Z"
                class="colorffc3aa svgShape"></path>
            <path fill="#ffffff"
                d="M660.12 812.11a19.67 19.67 0 11-19.66-19.66A19.67 19.67 0 01660.12 812.11zM534.11 754.75a19.67 19.67 0 11-19.66-19.66A19.66 19.66 0 01534.11 754.75zM660.12 1074.32a19.67 19.67 0 11-19.66-19.66A19.67 19.67 0 01660.12 1074.32z"
                class="colorfff svgShape"></path>
            <circle cx="363.67" cy="979.27" r="19.67" fill="#ffffff" class="colorfff svgShape"></circle>
            <path fill="#ffffff" d="M543.89,1193.49a19.67,19.67,0,1,1-19.66-19.67A19.66,19.66,0,0,1,543.89,1193.49Z"
                class="colorfff svgShape"></path>
            <circle cx="569.99" cy="995.66" r="19.67" fill="#ffffff" class="colorfff svgShape"></circle>
            <path fill="#ffffff"
                d="M540.65 902.31A19.67 19.67 0 11521 882.64 19.67 19.67 0 01540.65 902.31zM398.09 822a19.67 19.67 0 11-19.67-19.67A19.67 19.67 0 01398.09 822z"
                class="colorfff svgShape"></path>
            <circle cx="640.74" cy="812.11" r="19.67" fill="#ffffff" class="colorfff svgShape"></circle>
            <circle cx="640.74" cy="1074.32" r="19.67" fill="#ffffff" class="colorfff svgShape"></circle>
            <circle cx="642.92" cy="812.11" r="19.67" fill="#ffffff" class="colorfff svgShape"></circle>
            <circle cx="768.93" cy="754.75" r="19.67" fill="#ffffff" class="colorfff svgShape"></circle>
            <circle cx="642.92" cy="1074.32" r="19.67" fill="#ffffff" class="colorfff svgShape"></circle>
            <path fill="#ffffff"
                d="M900 979.27a19.67 19.67 0 1019.67-19.66A19.67 19.67 0 00900 979.27zM739.49 1193.49a19.67 19.67 0 1019.66-19.67A19.66 19.66 0 00739.49 1193.49zM693.72 995.66A19.67 19.67 0 10713.39 976 19.67 19.67 0 00693.72 995.66z"
                class="colorfff svgShape"></path>
            <circle cx="762.4" cy="902.31" r="19.67" fill="#ffffff" class="colorfff svgShape"></circle>
            <circle cx="904.96" cy="821.95" r="19.67" fill="#ffffff" class="colorfff svgShape"></circle>
            <path fill="#ffffff"
                d="M662.31 812.11a19.67 19.67 0 11-19.67-19.66A19.67 19.67 0 01662.31 812.11zM662.31 1074.32a19.67 19.67 0 11-19.67-19.66A19.67 19.67 0 01662.31 1074.32z"
                class="colorfff svgShape"></path>
            <path fill="#ffffff"
                d="M758.33,1195.48H525l-1,1-.77-1h-1.5l.35-1.53L363.79,982.87l-6.11-.38,4.24-2.14,14.4-157.29-2.3-1.25,140.47-65.93,123.57,56.79,3.62-1.41,3.63,1.4,123.58-56.78,140.47,65.93-2.3,1.25,14.41,157.3,4.23,2.13-6.11.38L759.36,1196.51Zm-229.29-4H754.33L645.9,1083.66l2.8-2.82,107,106.41L711.77,994l-65.7,79.3-3.06-2.54,61.56-74.3-6.58.18c-6.53.19-15.42.29-27.55.29-20.57,0-49.39-.32-85.65-.95l-6.48-.12,62.05,74.9-3.06,2.54L571.61,994l-43.93,193.24,107-106.41,2.79,2.82Zm-5.81-2.63,44-193.51L369,983.19ZM716.16,995.36l44,193.51L914.39,983.19Zm-139.27-3.5,4.27.07c35.19.61,70.52,1,94.54,1,11,0,20.28-.07,26.82-.24l4.22-.12L641.68,824Zm136.05-.28,197.85-12.15-147.61-74.5ZM372.57,979.43l197.86,12.15L520.2,904.93Zm151.92-75,49.16,84.8,63.42-164.27Zm185.23,84.8,49.16-84.8L646.31,824.93Zm54.21-88.34,153.34,77.39-14-153.12ZM366.11,978.24l153.34-77.39L380.14,825.13Zm16.72-156.17,142,77.2,113.38-80-2.86-2,1.21-.55L631,813.81,514.51,760.27Zm262.3-2.83,113.39,80,142-77.2-131.68-61.8L646.43,816.52l1.56.71Z"
                class="colorfff svgShape"></path>
            <polygon fill="#8A4FAD" points="639.03 1542.55 555.73 1657.57 446.82 1557.92 515.08 1493.93 639.03 1542.55"
                class="colorececec svgShape"></polygon>
            <polygon fill="#8A4FAD" points="636.26 1542.55 719.56 1657.57 828.47 1557.92 760.22 1493.93 636.26 1542.55"
                class="colorececec svgShape"></polygon>
            <path fill="#00202F"
                d="M268.48,778.89C516.5,765,773.79,535.5,797,500.74c64.9,197,170,288.13,170,288.13l66.47-21.57s6.95-503-368.55-537.76S261.53,700.08,268.48,778.89Z"
                class="color003752 svgShape"></path>
            <path fill="#AE7ACB"
                d="M1080.73,1740.94l-429.4,181.59L195.59,1739.84q5.67-6.4,11.63-12.82c134.89,54.57,444.91,169.07,444.91,169.07l409.71-175.83C1068.3,1727.12,1074.67,1734,1080.73,1740.94Z"
                class="colorff9cde svgShape"></path>
            <path fill="#F1ACCF"
                d="M314 788.87c-121.24-72.74-109.11 82.45-84.87 150.34s104.27 65.47 116.39 24.25S314 788.87 314 788.87zM966.93 788.87c121.23-72.74 109.11 82.45 84.86 150.34s-104.26 65.47-116.38 24.25S966.93 788.87 966.93 788.87z"
                class="colorffc3aa svgShape"></path>
        </g>
    </g>
</svg>