<svg xmlns="http://www.w3.org/2000/svg" viewBox="0 0 64 64" width="256" height="256">
    <circle cx="32" cy="32" r="32" fill="#ffcc4d" class="colorffcc4d svgShape"></circle>
    <path fill="#2e435a"
        d="M19.41 30.95a5.16 5.16 0 1 1-10.32 0 5.16 5.16 0 0 1 10.32 0zm25.18.54a5.16 5.16 0 1 0 10.32 0 5.16 5.16 0 0 0-10.32 0zM44.88 41.06c-.46 3.06-2.04 5.77-4.32 7.72-2.28 1.95-5.28 3.13-8.56 3.13s-6.28-1.18-8.57-3.13c-2.28-1.95-3.86-4.66-4.32-7.72-.14-.97.63-1.84 1.62-1.84h22.52c1 0 1.78.87 1.63 1.84z"
        class="color2e435a svgShape"></path>
    <path fill="#d3333f"
        d="M40.56 48.78c-2.28 1.95-5.28 3.13-8.56 3.13s-6.28-1.18-8.57-3.13c2.01-1.96 5.1-3.22 8.57-3.22 3.47.01 6.56 1.26 8.56 3.22z"
        class="colord3333f svgShape"></path>
</svg>